<svg width="296" height="255" viewBox="0 0 296 255" fill="none" xmlns="http://www.w3.org/2000/svg">
<g clip-path="url(#clip0_8_231)">
<path d="M235.359 80.0529C235.885 79.2916 236.363 78.4978 236.79 77.6764C238.608 73.5829 240.471 69.5062 242.143 65.3529C246.179 55.3276 249.792 45.1446 252.834 34.775C253.976 30.8968 254.589 26.863 255.472 22.9082C256.232 19.517 256.995 16.1235 257.843 12.7539C258.298 10.949 258.56 10.7591 260.349 10.8075C263.845 10.834 267.306 11.5122 270.554 12.8072C271.09 13.0307 271.605 13.3031 272.092 13.6212C272.7 13.9007 273.18 14.3988 273.437 15.0164C273.694 15.6341 273.71 16.3259 273.48 16.9543C272.71 21.6325 271.91 26.3059 271.288 31.0034C270.49 37.0091 269.744 43.0268 269.179 49.059C268.66 54.6179 268.403 60.2011 268.048 65.7745C268.029 66.3538 268.063 66.9336 268.15 67.5067C268.235 67.885 268.35 68.256 268.495 68.6159C268.858 68.4055 269.19 68.1468 269.484 67.8468C270.267 66.7886 270.984 65.6831 271.631 64.5366C274.813 58.5264 277.967 52.5051 281.093 46.4726C284.301 40.238 287.431 33.9629 290.614 27.714C291.09 26.773 291.619 25.8597 292.198 24.9785C292.871 23.9615 293.442 24.0291 294.035 25.1245C294.11 25.2642 294.171 25.411 294.217 25.5626C295.381 28.5859 295.632 31.8846 294.938 35.0491C292.026 46.3323 288.096 57.3282 283.199 67.902C282.055 70.2171 280.812 72.4869 279.563 74.7472C278.95 75.85 278.227 76.886 277.514 77.941C276.512 79.5113 275.107 80.7833 273.444 81.6238C271.782 82.4642 269.924 82.8422 268.066 82.7181C265.152 82.68 262.272 82.0905 259.578 80.9807C257.659 80.2714 255.962 79.0682 254.658 77.4927C253.354 75.9172 252.488 74.0252 252.15 72.0081C252.037 71.3894 251.888 70.7753 251.716 69.9638C251.516 70.1961 251.341 70.4486 251.193 70.717C249.812 74.3069 248.466 77.9112 247.061 81.4891C246.542 82.811 245.903 84.0874 245.277 85.3662C244.521 87.0405 243.316 88.473 241.797 89.5053C240.277 90.5376 238.501 91.1295 236.666 91.2153C233.394 91.5559 230.088 91.218 226.952 90.2228C226.102 89.9321 225.276 89.5775 224.48 89.1621C222.75 88.4094 221.258 87.2 220.164 85.6636C219.07 84.1273 218.415 82.322 218.269 80.4415C218.246 80.1798 218.225 79.9157 218.19 79.6539C218.162 79.454 218.114 79.2565 218.015 78.7567C217.814 79.1259 217.633 79.5061 217.473 79.8953C216.264 83.8814 214.741 87.7656 212.918 91.5112C212.369 92.5904 211.78 93.6504 211.145 94.6841C210.128 96.4753 208.566 97.895 206.686 98.7364C204.806 99.5778 202.706 99.7969 200.693 99.3619C196.567 98.9422 192.729 97.0524 189.881 94.0375C187.033 91.0227 185.364 87.0839 185.18 82.9406C185.161 82.4552 185.032 81.9804 184.801 81.5529C184.699 81.8077 184.613 82.069 184.545 82.3352C183.664 86.9958 182.463 91.5905 180.953 96.0868C180.232 98.3524 179.165 100.493 177.791 102.433C176.891 103.748 175.689 104.828 174.286 105.583C172.882 106.338 171.319 106.747 169.726 106.775C164.761 107 159.886 105.397 156.024 102.269C153.852 100.388 152.306 97.8899 151.592 95.1072C151.325 94.2764 151.095 93.441 150.762 92.3032C150.416 93.0544 150.196 93.5179 149.986 93.9862C149.014 96.1494 148.106 98.3437 147.053 100.466C146.341 101.819 145.553 103.13 144.693 104.395C143.549 106.279 141.965 107.858 140.076 108.996C138.187 110.133 136.051 110.795 133.85 110.925C130.793 111.251 127.701 110.981 124.747 110.131C122.53 109.56 120.515 108.386 118.925 106.74C117.335 105.093 116.233 103.039 115.739 100.804C115.13 98.2425 114.736 95.6347 114.564 93.0078C114.259 87.5342 114.395 82.0449 114.971 76.5931C115.077 75.8885 115.033 75.1695 114.844 74.4827C114.7 74.9773 114.549 75.4695 114.415 75.9688C111.22 88.4783 107.306 100.793 102.693 112.852C100.742 118.092 98.3649 123.163 95.5861 128.015C94.2663 130.174 92.825 132.255 91.2691 134.25C90.3344 135.506 89.1463 136.552 87.7819 137.319C86.4175 138.087 84.9071 138.559 83.3485 138.706C78.7691 139.344 74.1026 138.731 69.8435 136.932C67.9264 136.16 66.2094 134.964 64.8221 133.433C63.4347 131.901 62.4132 130.075 61.8345 128.091C60.8092 124.656 60.141 121.124 59.8405 117.551C59.0757 107.875 59.178 98.1495 60.1463 88.4915C60.7341 81.6671 61.3599 74.8403 62.2522 68.0521C63.371 59.5395 64.6113 51.0366 66.1036 42.5818C67.6968 33.5585 69.6301 24.5953 71.4588 15.6153C71.8356 13.7603 72.4431 11.9533 72.8769 10.1079C72.9747 9.47169 73.3063 8.89482 73.8068 8.49006C74.3073 8.08531 74.9407 7.88176 75.5833 7.91921C77.2692 7.83931 78.9588 7.92997 80.6264 8.1898C82.7877 8.66314 84.9169 9.27237 87.0014 10.0139C87.8415 10.3332 88.6314 10.7712 89.3472 11.3146C89.7099 11.4826 90.0348 11.7222 90.3025 12.019C90.5702 12.3158 90.7751 12.6637 90.9049 13.0417C91.0347 13.4198 91.0867 13.8201 91.0578 14.2188C91.0288 14.6174 90.9196 15.0061 90.7366 15.3614C87.4167 26.7987 84.4392 38.3247 81.973 49.9777C79.5993 60.9476 77.8056 72.035 76.5996 83.1938C75.6948 91.4235 75.3908 99.7081 75.6899 107.982C75.782 111.99 76.3151 115.976 77.2795 119.868C77.6874 121.447 78.2737 122.974 79.0272 124.42C79.1701 124.874 79.4366 125.28 79.7968 125.593C80.1571 125.905 80.597 126.11 81.0674 126.187C81.5378 126.264 82.0202 126.208 82.4609 126.026C82.9015 125.845 83.283 125.544 83.5627 125.158C84.94 123.854 86.1178 122.353 87.0583 120.706C88.9917 117.259 90.7403 113.711 92.2967 110.079C98.3542 95.6979 103.636 81.0027 108.119 66.0561C113.207 48.8282 118.313 31.6042 123.436 14.3842C124.393 11.2028 125.4 8.04519 126.431 4.89002C126.774 3.89462 127.185 2.92399 127.662 1.985C127.87 1.49198 128.213 1.06813 128.653 0.762731C129.092 0.457332 129.609 0.282935 130.144 0.259821C131.565 0.193161 132.989 0.23305 134.404 0.379154C136.931 0.674519 139.382 1.43119 141.635 2.61156C142.475 3.05302 143.266 3.58234 143.995 4.19065C144.522 4.58845 144.909 5.14493 145.098 5.7785C145.286 6.41206 145.267 7.08937 145.042 7.7111C142.276 17.7172 139.889 27.8136 137.883 38.0003C136.138 46.898 134.763 55.8511 133.757 64.8595C132.599 75.3062 132.438 85.7928 132.229 96.2792C132.145 96.8846 132.273 97.5004 132.591 98.0222C132.909 98.5441 133.398 98.9398 133.975 99.1422C134.552 99.3446 135.181 99.3413 135.755 99.1328C136.33 98.9243 136.815 98.5235 137.127 97.9984C139.764 94.5652 142.071 90.8909 144.017 87.0241C148.015 79.4717 151.131 71.4841 153.302 63.2192C155.385 54.9776 158.595 47.0626 162.84 39.6978C164.439 36.7795 166.386 34.0667 168.641 31.6193C170.191 30.0407 171.864 28.5878 173.644 27.2745C175.303 26.1191 177.257 25.4622 179.276 25.3812C182.435 25.0359 185.628 25.182 188.742 25.8142C189.972 26.1171 191.168 26.5482 192.308 27.1004C192.941 27.3776 193.51 27.783 193.978 28.2912C194.447 28.7994 194.805 29.3993 195.029 30.0529C195.299 30.8646 195.763 31.0296 196.541 31.0952C197.957 31.1828 199.361 31.4043 200.736 31.7568C201.984 32.1111 202.23 32.8276 202.069 34.0763C201.558 38.0461 200.951 42.0085 200.62 45.9928C199.799 55.5551 199.278 65.1369 199.285 74.7364C199.177 79.115 199.461 83.4945 200.133 87.8226C200.322 88.9097 200.652 89.9676 201.114 90.9694C201.631 92.0623 202.423 92.1612 203.255 91.2563C204.046 90.4079 204.717 89.4559 205.251 88.4264C206.77 85.3577 208.355 82.2987 209.586 79.1153C212.284 72.1947 214.816 65.2072 217.357 58.2268C218.525 54.67 219.285 50.9919 219.622 47.2634C220.618 38.1477 222.223 29.109 224.428 20.2079C224.682 19.2401 225.085 18.3059 225.304 17.338C225.407 16.7603 225.727 16.244 226.199 15.8949C226.671 15.5459 227.258 15.3905 227.841 15.4606C230.49 15.3906 233.129 15.8181 235.62 16.721C236.564 17.056 237.463 17.5067 238.297 18.0627C238.586 18.2016 238.845 18.3971 239.058 18.6377C239.271 18.8783 239.433 19.1591 239.536 19.4635C239.639 19.7679 239.679 20.0898 239.655 20.4102C239.631 20.7305 239.544 21.0428 239.397 21.3287C237.02 29.9137 235.356 38.6804 234.422 47.5393C233.47 55.0196 233.05 62.5579 233.164 70.0975C233.228 72.5647 233.521 75.0323 233.829 77.4737C233.947 78.8728 234.185 79.0731 235.359 80.0529ZM163.969 83.9547C163.935 86.6528 164.24 89.3445 164.877 91.9665C165.306 93.7714 166.194 95.4349 167.455 96.7958C167.709 97.1943 168.061 97.521 168.477 97.7444C168.894 97.9678 169.36 98.0804 169.833 98.0714C170.305 98.0625 170.768 97.9322 171.175 97.6932C171.583 97.4542 171.922 97.1144 172.161 96.7065C173.205 95.4531 174.074 94.0636 174.745 92.5763C175.949 89.829 177.011 87.0215 177.926 84.1649C180.585 75.6184 182.721 66.9178 184.322 58.1114C185.559 51.4903 186.988 44.9053 188.261 38.289C188.483 37.1019 188.516 35.8873 188.36 34.6897C188.297 33.9931 187.963 33.349 187.43 32.8967C186.897 32.4443 186.207 32.2201 185.509 32.2724C184.795 32.2372 184.081 32.3594 183.419 32.6304C182.758 32.9013 182.163 33.3145 181.679 33.8405C179.847 35.7417 178.279 37.8802 177.016 40.1986C172.664 47.673 169.341 55.7007 167.137 64.0644C165.32 70.5507 164.257 77.2248 163.969 83.9547V83.9547Z" fill="#FAFAFA"/>
<path d="M110.025 153.194C110.099 152.091 110.134 151.151 110.228 150.214C110.54 147.122 110.853 144.029 111.22 140.951C111.354 140.226 111.557 139.516 111.828 138.83C112.14 137.79 112.694 136.839 113.446 136.054C114.197 135.27 115.123 134.675 116.149 134.318C121.682 132.176 127.591 131.175 133.521 131.375C135.167 131.373 136.783 131.822 138.192 132.672C139.601 133.523 140.751 134.744 141.516 136.202C143.145 139.105 144.245 142.274 144.766 145.562C145.19 147.999 145.425 150.466 145.745 152.919C145.758 153.197 145.87 153.46 146.06 153.662C146.203 153.296 146.368 152.935 146.485 152.559C147.203 150.246 147.873 147.915 148.639 145.616C149.972 141.157 153.008 137.402 157.088 135.163C158.291 134.504 159.458 133.771 160.677 133.143C162.973 131.923 165.506 131.215 168.102 131.068C170.698 130.921 173.295 131.338 175.714 132.291C179.704 133.855 183.439 136.004 186.796 138.668C188.015 139.588 189.198 140.551 190.564 141.627C190.867 141.068 191.147 140.593 191.39 140.098C194.282 134.057 197.497 128.175 201.021 122.48C202.121 120.742 203.284 119.043 204.498 117.383C204.658 117.057 204.883 116.768 205.159 116.533C205.436 116.298 205.757 116.121 206.104 116.015C206.45 115.909 206.815 115.874 207.176 115.914C207.536 115.954 207.885 116.068 208.2 116.247C210.628 117.001 212.9 118.188 214.905 119.752C215.641 120.348 216.298 121.035 216.862 121.796C217.236 122.246 217.44 122.812 217.439 123.397C217.438 123.982 217.232 124.548 216.856 124.996C211.402 133.342 206.629 142.114 202.583 151.226C202.47 151.538 202.374 151.855 202.293 152.177C202.776 152.501 203.237 152.855 203.676 153.236C211.998 161.046 219.52 169.667 226.132 178.969C227.7 181.215 229.059 183.604 230.525 185.919C230.937 186.54 231.149 187.271 231.136 188.015C231.123 188.76 230.884 189.483 230.451 190.089C230.272 190.411 230.067 190.719 229.839 191.009C226.919 194.538 222.912 196.999 218.445 198.009C217.755 198.217 217.016 198.192 216.341 197.939C215.667 197.685 215.094 197.217 214.712 196.606C214.105 195.744 213.538 194.853 212.985 193.955C207.837 185.658 202.193 177.68 196.084 170.064C195.794 169.699 195.469 169.349 195.084 168.922C194.92 169.148 194.774 169.386 194.647 169.635C190.218 180.353 186.629 191.399 183.914 202.673C183.272 205.546 182.855 208.471 182.412 211.387C182.135 213.202 181.532 213.931 179.696 213.626C177.283 213.279 174.979 212.396 172.952 211.042C170.926 209.688 169.228 207.898 167.983 205.802C167.577 204.889 167.502 203.862 167.77 202.899C168.64 199.051 169.499 195.187 170.661 191.421C174.242 180.171 178.396 169.111 183.108 158.286C183.375 157.658 183.626 157.023 183.899 156.365C183.81 156.173 183.7 155.992 183.571 155.824C179.877 151.899 175.796 148.356 171.39 145.249C169.167 143.624 166.662 142.425 164.002 141.713C162.748 141.342 161.409 141.367 160.17 141.786C158.931 142.205 157.851 142.997 157.08 144.054C156.077 145.342 155.256 146.762 154.641 148.275C153.48 151.154 152.518 154.114 151.509 157.055C150.25 161.031 148.46 164.819 146.186 168.315C145.913 168.757 145.756 169.261 145.732 169.78C145.135 178.509 143.927 187.185 142.117 195.745C140.805 202.579 138.876 209.28 136.356 215.767C135.508 217.752 134.551 219.69 133.491 221.571C132.497 223.342 130.877 224.677 128.949 225.313C125.646 226.466 122.145 226.945 118.653 226.722C114.158 226.513 109.725 225.586 105.523 223.975C104.07 223.476 102.751 222.651 101.667 221.564C100.582 220.477 99.7605 219.156 99.2652 217.702C98.1316 214.358 97.3134 210.915 96.8211 207.418C95.0769 196.104 94.4826 184.642 95.0473 173.209C95.2173 167.303 96.0253 161.433 97.4572 155.701C97.5405 155.209 97.7699 154.754 98.1155 154.395C98.4612 154.036 98.907 153.789 99.3949 153.687C102.161 152.96 105.032 152.723 107.88 152.988C108.505 153.044 109.131 153.107 110.025 153.194ZM111.107 168.472C110.996 168.906 110.911 169.347 110.852 169.792C110.744 172.171 110.606 174.528 110.571 176.898C110.485 185.855 111.209 194.803 112.734 203.63C113.338 207.155 114.057 210.66 114.89 214.144C115.245 215.625 115.832 217.039 116.629 218.337C116.847 218.737 117.144 219.088 117.503 219.369C117.862 219.649 118.275 219.853 118.715 219.968C119.156 220.083 119.616 220.106 120.066 220.036C120.516 219.966 120.947 219.804 121.332 219.561C122.402 219.001 123.338 218.217 124.077 217.263C125.021 215.934 125.792 214.491 126.371 212.968C130.229 203.162 132.965 192.952 134.528 182.531C134.735 181.104 134.79 179.655 134.931 178.011C134.159 178.321 133.628 178.539 133.1 178.748C129.907 180.172 126.326 180.47 122.942 179.594C119.558 178.718 116.572 176.72 114.471 173.926C113.554 172.641 112.705 171.308 111.928 169.934C111.69 169.546 111.484 169.141 111.107 168.47L111.107 168.472ZM137.541 153.376C137.396 150.678 137.366 148.675 137.16 146.688C137.004 144.372 136.399 142.108 135.378 140.023C135 139.208 134.455 138.48 133.78 137.887C133.104 137.294 132.312 136.848 131.454 136.579C128.211 135.621 126.506 136.553 125.641 139.778C125.545 140.078 125.478 140.387 125.442 140.701C125.273 143.531 124.94 146.369 125.004 149.195C125.083 152.714 125.384 156.24 125.803 159.736C126.087 162.19 126.585 164.614 127.294 166.98C128.406 170.615 130.306 171.356 133.843 169.916C134.497 169.691 135.07 169.278 135.49 168.728C135.91 168.179 136.159 167.517 136.204 166.827C136.671 162.117 137.132 157.405 137.532 153.374L137.541 153.376Z" fill="#FAFAFA"/>
<path d="M42.1532 196.549C43.603 190.604 45.2976 184.802 47.0636 179.022C48.3773 174.572 50.0831 170.247 52.1609 166.098C52.941 164.543 53.8433 163.052 54.8594 161.64C56.3898 159.182 58.7423 157.347 61.4986 156.46C64.255 155.573 67.2365 155.692 69.9131 156.797C72.4548 157.631 74.7988 158.977 76.8005 160.752C78.8022 162.527 80.4193 164.693 81.5521 167.116C83.4351 171.069 84.8236 175.24 85.6864 179.533C88.1897 190.493 89.1135 201.755 88.4299 212.977C88.1439 220.259 86.6478 227.443 84.0031 234.233C82.4661 238.236 80.1162 241.877 77.1016 244.927C73.7589 248.296 69.3367 250.38 64.6108 250.814C60.1379 251.269 55.6263 251.173 51.1768 250.529C50.8748 250.483 50.5631 250.49 50.0659 250.463C50.1553 251.058 50.2115 251.555 50.3011 252.04C50.3495 252.191 50.3649 252.35 50.3463 252.507C50.3278 252.665 50.2757 252.816 50.1935 252.951C50.1114 253.086 50.0012 253.202 49.8703 253.291C49.7394 253.38 49.5909 253.44 49.4349 253.466C47.8284 254.01 46.1294 254.227 44.4378 254.105C39.2611 253.512 34.362 251.45 30.3192 248.163C29.6046 247.542 29.0993 246.715 28.8721 245.796C28.2019 243.361 27.6764 240.888 27.2984 238.392C26.2045 229.553 25.5636 220.664 25.3779 211.76C24.8492 196.798 24.717 181.832 24.9813 166.862C25.1816 155.849 25.5531 144.84 25.9508 133.833C26.0859 130.098 26.5754 126.378 26.8199 122.653C26.8084 121.988 27.0426 121.342 27.4776 120.839C27.9126 120.336 28.5179 120.011 29.1775 119.926C32.6921 119.042 36.3986 119.32 39.7415 120.72C40.787 121.041 41.6731 121.745 42.2234 122.69C42.7737 123.635 42.9478 124.753 42.711 125.821C42.3222 130.438 42.0642 135.079 42.0465 139.711C41.9833 158.001 42.0343 176.289 42.0473 194.579C42.0604 195.238 42.1187 195.895 42.1532 196.549ZM72.6195 199.063C72.6433 193.827 72.2436 188.599 71.4243 183.428C70.7562 178.785 69.6164 174.221 68.0225 169.809C67.6826 168.868 67.2465 167.965 66.7212 167.114C64.5598 163.779 61.731 163.841 59.691 167.216C58.382 169.388 57.427 171.754 56.8618 174.226C55.9867 178.031 55.2401 181.836 54.4626 185.661C52.1638 196.817 50.7021 208.095 49.4594 219.406C49.0798 222.862 48.6835 226.303 48.2373 229.762C47.631 232.759 47.3939 235.82 47.5313 238.875C47.6711 240.072 47.9848 241.243 48.4625 242.35C48.8209 243.213 49.4394 243.943 50.2321 244.438C51.0247 244.933 51.9521 245.169 52.885 245.112C55.5042 245.106 58.0217 244.098 59.9225 242.296C61.6054 240.766 63.0262 238.971 64.1284 236.982C66.6286 232.573 68.5451 227.858 69.8296 222.955C71.747 215.139 72.6842 207.114 72.6195 199.065L72.6195 199.063Z" fill="#FAFAFA"/>
<path d="M37.7053 73.3521C37.8215 74.2918 37.5903 75.2415 37.0553 76.0226C36.5203 76.8037 35.7183 77.3624 34.8001 77.5936C31.9626 78.5616 29.0872 79.4297 26.1692 80.1549C20.0286 81.6857 13.8573 83.0879 7.70483 84.5616C6.8861 84.7576 6.09334 85.0607 5.29115 85.321C4.99871 85.4851 4.67441 85.5846 4.34022 85.6125C4.00602 85.6404 3.66973 85.5962 3.35411 85.4828C3.03849 85.3695 2.75091 85.1896 2.51083 84.9555C2.27076 84.7213 2.08379 84.4383 1.9626 84.1256C0.921091 82.226 0.353546 80.1031 0.308191 77.9372C0.308376 77.8325 0.308565 77.7254 0.308749 77.6207C0.285487 74.6255 0.636216 74.0528 3.58734 73.4204C9.98145 72.0519 16.3897 70.7444 22.8122 69.498C26.5914 68.76 30.3942 68.1505 34.1922 67.5102C34.4444 67.4235 34.7113 67.388 34.9773 67.4056C35.2433 67.4232 35.5032 67.4937 35.7417 67.6128C35.9802 67.7319 36.1926 67.8974 36.3665 68.0995C36.5404 68.3015 36.6724 68.5363 36.7546 68.7899C37.461 70.2027 37.7886 71.7747 37.7053 73.3521Z" fill="#FAFAFA"/>
<path d="M266.65 147.654C261.468 147.645 256.286 147.65 251.105 147.626C249.042 147.623 248.37 147.041 248.048 145.004C247.792 143.435 247.913 141.828 248.401 140.316C248.537 139.745 248.823 139.222 249.229 138.799C249.635 138.376 250.147 138.069 250.711 137.91C252.279 137.453 253.886 137.137 255.511 136.967C259.794 136.679 264.076 136.573 268.342 136.364C272.352 136.166 276.362 135.947 280.372 135.707C281.107 135.665 281.835 135.493 282.573 135.418C283.093 135.274 283.65 135.34 284.122 135.602C284.594 135.864 284.944 136.301 285.097 136.819C285.434 137.645 285.672 138.508 285.806 139.39C286.118 141.43 285.951 143.516 285.319 145.481C285.212 146.056 284.898 146.571 284.437 146.93C283.976 147.289 283.399 147.467 282.816 147.43C277.427 147.525 272.036 147.701 266.637 147.847C266.652 147.79 266.652 147.721 266.65 147.654Z" fill="#FAFAFA"/>
<path d="M31.5521 56.4595C30.6793 56.2819 29.1739 55.9795 27.6875 55.67C22.7838 54.617 17.8921 53.5115 12.9763 52.5179C11.119 52.1435 9.20404 52.0355 7.31788 51.7943C5.84797 51.6037 5.25176 51.0769 5.07356 49.604C4.73152 46.5897 5.45114 43.5506 7.10853 41.0097C7.38686 40.5535 7.81606 40.2091 8.32173 40.0362C8.82739 39.8633 9.37762 39.8727 9.87702 40.063C12.5548 40.6672 15.2492 41.2168 17.8982 41.9257C23.7123 43.4823 29.5071 45.1079 35.2996 46.7382C37.2661 47.2913 37.8404 48.0916 37.5562 50.0729C37.3825 51.3222 37.0468 52.5437 36.5577 53.7063C35.6714 55.7769 34.4593 56.467 31.5521 56.4595Z" fill="#FAFAFA"/>
<path d="M246.911 155.363C248.892 155.842 250.797 156.238 252.678 156.736C257.37 157.974 262.043 159.272 266.734 160.508C267.75 160.774 268.808 160.883 269.847 161.058C271.274 161.299 271.799 161.79 271.628 163.148C271.443 164.722 270.932 166.241 270.126 167.607C269.321 168.972 268.24 170.155 266.951 171.078C266.557 171.304 266.118 171.439 265.665 171.474C265.212 171.509 264.758 171.443 264.334 171.281C262.22 170.839 260.103 170.369 258.022 169.79C253.789 168.665 249.659 167.187 245.673 165.369C244.526 164.837 243.423 164.212 242.377 163.501C242.084 163.364 241.825 163.163 241.62 162.913C241.416 162.662 241.271 162.369 241.196 162.054C241.122 161.739 241.119 161.412 241.189 161.096C241.259 160.78 241.4 160.484 241.6 160.23C242.516 158.754 243.569 157.368 244.745 156.089C245.205 155.605 246.169 155.595 246.911 155.363Z" fill="#FAFAFA"/>
<path d="M28.8608 14.9572C29.3443 15.1152 29.8116 15.3192 30.2562 15.5663C30.9986 16.0677 31.7066 16.6181 32.3754 17.214C36.6893 21.0151 40.6183 25.2319 44.1057 29.8032C44.9931 30.9792 45.7804 32.2276 46.4591 33.5353C46.6645 33.8182 46.8006 34.1455 46.8564 34.4906C46.9123 34.8358 46.8863 35.1892 46.7807 35.5225C46.675 35.8558 46.4926 36.1596 46.2481 36.4096C46.0036 36.6595 45.7038 36.8486 45.373 36.9616C43.9266 37.723 42.4285 38.3818 40.8898 38.933C40.3297 39.0611 39.7418 38.968 39.2487 38.6732C38.2858 38.1296 37.3861 37.4809 36.5661 36.739C34.7111 35.0205 32.9181 33.233 31.1323 31.4408C28.04 28.1953 24.7359 25.1583 21.242 22.3497C20.1919 21.5438 19.9931 20.9201 20.6539 19.9316C21.6031 18.5796 22.8227 17.4395 24.2354 16.5832C25.648 15.727 27.2231 15.1733 28.8608 14.9572V14.9572Z" fill="#FAFAFA"/>
<path d="M265.342 112.106C265.158 112.663 264.931 113.204 264.664 113.725C264.288 114.3 263.866 114.843 263.402 115.348C259.417 119.865 254.952 123.936 250.087 127.488C248.999 128.235 247.869 128.915 246.7 129.526C246.21 129.8 245.639 129.896 245.086 129.795C244.533 129.695 244.033 129.405 243.67 128.976C242.505 127.899 241.776 126.431 241.623 124.851C241.47 123.272 241.902 121.691 242.838 120.41C244.219 118.744 245.693 117.158 247.253 115.66C249.276 113.653 251.442 111.787 253.432 109.747C255.012 108.129 256.443 106.364 257.895 104.628C258.693 103.678 259.2 103.51 260.322 104.223C261.871 105.257 263.104 106.701 263.883 108.392C264.478 109.607 264.88 110.916 265.342 112.106Z" fill="#FAFAFA"/>
</g>
<defs>
<clipPath id="clip0_8_231">
<rect width="295.001" height="254.081" fill="white" transform="translate(0.448364) rotate(0.10111)"/>
</clipPath>
</defs>
</svg>
