<svg xmlns="http://www.w3.org/2000/svg" width="124" height="106.8" viewBox="0 0 124 106.8"><defs><style>.a{fill:#f33;}</style></defs><path class="a" d="M446.294,33.475a9.28,9.28,0,0,0,.6-1c.761-1.722,1.541-3.437,2.241-5.184,1.689-4.217,3.2-8.5,4.471-12.861.477-1.631.732-3.327,1.1-4.99.317-1.426.635-2.853.989-4.27.19-.759.3-.839,1.052-.82a11.823,11.823,0,0,1,4.291.833,3.969,3.969,0,0,1,.647.341,1.119,1.119,0,0,1,.586,1.4c-.32,1.967-.653,3.932-.911,5.907-.331,2.525-.64,5.055-.873,7.591-.214,2.337-.318,4.684-.463,7.027a3.984,3.984,0,0,0,.044.728,3.058,3.058,0,0,0,.146.466,1.945,1.945,0,0,0,.415-.324,13.472,13.472,0,0,0,.9-1.393q2-3.793,3.964-7.6c1.344-2.623,2.655-5.263,3.988-7.892a11.718,11.718,0,0,1,.664-1.151c.282-.428.522-.4.772.06a1.018,1.018,0,0,1,.077.184,6.951,6.951,0,0,1,.31,3.987,81.047,81.047,0,0,1-4.91,13.818c-.479.974-1,1.929-1.523,2.88-.257.464-.56.9-.859,1.344a4.366,4.366,0,0,1-3.968,2.015,9.7,9.7,0,0,1-3.569-.724,4.883,4.883,0,0,1-3.129-3.766c-.048-.26-.111-.518-.184-.859a1.867,1.867,0,0,0-.219.317c-.578,1.51-1.141,3.026-1.729,4.531-.217.556-.485,1.093-.747,1.631a4.186,4.186,0,0,1-3.615,2.465,10.056,10.056,0,0,1-4.084-.41,7.482,7.482,0,0,1-1.04-.444,4.366,4.366,0,0,1-2.617-3.661c-.01-.11-.019-.221-.034-.331-.012-.084-.032-.167-.074-.377a4.794,4.794,0,0,0-.227.479,33.167,33.167,0,0,1-1.906,4.886c-.23.454-.477.9-.743,1.335a4.065,4.065,0,0,1-4.39,1.974,7.263,7.263,0,0,1-6.533-6.891,1.334,1.334,0,0,0-.16-.583,2.577,2.577,0,0,0-.107.329,43.606,43.606,0,0,1-1.5,5.783,9.712,9.712,0,0,1-1.324,2.67,4.2,4.2,0,0,1-3.387,1.831,8.538,8.538,0,0,1-5.763-1.884,5.93,5.93,0,0,1-1.868-3.007c-.113-.349-.21-.7-.351-1.178-.145.316-.237.511-.325.708-.407.91-.787,1.833-1.228,2.726a17.156,17.156,0,0,1-.989,1.653,5.727,5.727,0,0,1-4.553,2.753,10,10,0,0,1-3.827-.327,5.207,5.207,0,0,1-3.793-3.914,19.737,19.737,0,0,1-.5-3.276,42.922,42.922,0,0,1,.159-6.9,2.138,2.138,0,0,0-.055-.887c-.06.208-.123.415-.179.625a141.108,141.108,0,0,1-4.9,15.512,43.062,43.062,0,0,1-2.976,6.379,28.092,28.092,0,0,1-1.81,2.624,4.7,4.7,0,0,1-3.326,1.879,10.772,10.772,0,0,1-5.678-.736,5.737,5.737,0,0,1-3.373-3.71,21.917,21.917,0,0,1-.846-4.429,68.409,68.409,0,0,1,.107-12.215c.242-2.869.5-5.739.87-8.593.464-3.579.979-7.154,1.6-10.709.663-3.794,1.469-7.563,2.231-11.339.157-.78.411-1.54.592-2.316a1.087,1.087,0,0,1,1.136-.922,10.531,10.531,0,0,1,2.12.11,22.107,22.107,0,0,1,2.681.762,3.954,3.954,0,0,1,.987.545,1.246,1.246,0,0,1,.587,1.7c-1.387,4.81-2.63,9.657-3.658,14.557a134.2,134.2,0,0,0-2.234,13.966,71.66,71.66,0,0,0-.364,10.42,22.964,22.964,0,0,0,.677,4.995,9.027,9.027,0,0,0,.738,1.912,1.081,1.081,0,0,0,1.907.307,8.128,8.128,0,0,0,1.466-1.874,46.826,46.826,0,0,0,2.194-4.471A183.386,183.386,0,0,0,392.8,27.686q3.189-10.868,6.4-21.731c.4-1.338.821-2.666,1.252-3.993A9.651,9.651,0,0,1,400.967.74a1.188,1.188,0,0,1,1.042-.727A11.976,11.976,0,0,1,403.8.06a8.736,8.736,0,0,1,3.041.933,5.642,5.642,0,0,1,.993.662,1.3,1.3,0,0,1,.443,1.479q-1.733,6.312-2.987,12.737-1.09,5.612-1.714,11.293c-.479,4.392-.539,8.8-.619,13.208a1.113,1.113,0,0,0,2.06.719,28.914,28.914,0,0,0,2.888-4.618,46.806,46.806,0,0,0,3.885-10.013,38.876,38.876,0,0,1,3.992-9.894,17.228,17.228,0,0,1,2.432-3.4,17.541,17.541,0,0,1,2.1-1.83,4.454,4.454,0,0,1,2.366-.8,12.933,12.933,0,0,1,3.979.175,7.619,7.619,0,0,1,1.5.538,2.1,2.1,0,0,1,1.146,1.239c.114.341.309.41.636.437a9.447,9.447,0,0,1,1.764.275c.525.148.629.449.562.974-.212,1.669-.464,3.335-.6,5.01-.338,4.02-.55,8.048-.54,12.083a30.876,30.876,0,0,0,.366,5.5,5.341,5.341,0,0,0,.415,1.322c.218.459.551.5.9.119a5.373,5.373,0,0,0,.837-1.191c.636-1.291,1.3-2.578,1.815-3.917,1.129-2.911,2.188-5.85,3.251-8.786a20.763,20.763,0,0,0,.944-4.61,86.292,86.292,0,0,1,2-11.376c.106-.407.275-.8.366-1.207a.966.966,0,0,1,1.065-.791,8.907,8.907,0,0,1,3.271.524,5.1,5.1,0,0,1,1.126.562,1.011,1.011,0,0,1,.465,1.372,68.013,68.013,0,0,0-2.072,11.021,67.148,67.148,0,0,0-.512,9.483c.029,1.037.154,2.074.285,3.1C445.7,32.98,445.8,33.064,446.294,33.475Zm-30.005,1.693a13.534,13.534,0,0,0,.388,3.367,4.526,4.526,0,0,0,1.087,2.028,1.159,1.159,0,0,0,1.978-.041,7.576,7.576,0,0,0,1.083-1.738,36.694,36.694,0,0,0,1.331-3.538,92.586,92.586,0,0,0,2.669-10.956c.515-2.784,1.111-5.553,1.641-8.335a4.831,4.831,0,0,0,.039-1.513,1.119,1.119,0,0,0-1.2-1.014,2.052,2.052,0,0,0-1.609.662,12.4,12.4,0,0,0-1.955,2.676,40.39,40.39,0,0,0-4.135,10.039A36.835,36.835,0,0,0,416.289,35.168Z" transform="translate(-347.493 0)"/><path class="a" d="M603.627,746.408c.03-.464.044-.859.083-1.253.129-1.3.258-2.6.41-3.894a4.805,4.805,0,0,1,.254-.892,2.887,2.887,0,0,1,1.813-1.9,18.508,18.508,0,0,1,7.3-1.25,3.79,3.79,0,0,1,3.364,2.023,11.816,11.816,0,0,1,1.373,3.932c.18,1.024.281,2.061.417,3.092a.49.49,0,0,0,.133.312c.06-.154.129-.306.178-.464.3-.973.58-1.953.9-2.92a7.445,7.445,0,0,1,3.544-4.4c.505-.278.995-.587,1.507-.852a7.564,7.564,0,0,1,6.32-.369,18.145,18.145,0,0,1,4.663,2.672c.513.386,1.011.79,1.586,1.241.127-.235.244-.435.346-.643a78.418,78.418,0,0,1,4.035-7.413c.461-.731.949-1.446,1.458-2.145a1.117,1.117,0,0,1,1.555-.48,8.848,8.848,0,0,1,2.821,1.468,4.732,4.732,0,0,1,.824.858,1.049,1.049,0,0,1,0,1.345,78.054,78.054,0,0,0-5.98,11.036,4.112,4.112,0,0,0-.121.4,5.965,5.965,0,0,1,.582.444,72.213,72.213,0,0,1,9.458,10.8c.661.943,1.234,1.946,1.852,2.918a1.547,1.547,0,0,1-.028,1.753,2.952,2.952,0,0,1-.257.387,8.708,8.708,0,0,1-4.784,2.951,1.381,1.381,0,0,1-1.57-.587c-.256-.362-.495-.736-.728-1.113a101.9,101.9,0,0,0-7.122-10.03c-.122-.153-.259-.3-.421-.479a2.244,2.244,0,0,0-.183.3,93.949,93.949,0,0,0-4.487,13.895c-.268,1.208-.441,2.438-.625,3.664-.115.763-.368,1.07-1.14.943a6.861,6.861,0,0,1-4.929-3.28,1.809,1.809,0,0,1-.092-1.22c.363-1.618.721-3.243,1.207-4.827a145.485,145.485,0,0,1,5.207-13.937c.112-.264.217-.531.331-.808a1.175,1.175,0,0,0-.138-.227,33.684,33.684,0,0,0-5.128-4.436,9.369,9.369,0,0,0-3.108-1.481,2.666,2.666,0,0,0-2.908.989,7.463,7.463,0,0,0-1.022,1.776c-.486,1.211-.888,2.456-1.31,3.693a19.458,19.458,0,0,1-2.229,4.737,1.284,1.284,0,0,0-.19.616,78.712,78.712,0,0,1-1.5,10.917,48.484,48.484,0,0,1-2.407,8.42,24.8,24.8,0,0,1-1.2,2.442,3.415,3.415,0,0,1-1.906,1.576,11,11,0,0,1-4.327.6,17.709,17.709,0,0,1-5.521-1.145,4.23,4.23,0,0,1-2.635-2.632,23.8,23.8,0,0,1-1.035-4.321,71.291,71.291,0,0,1-.771-14.378,34.459,34.459,0,0,1,1-7.361,1.043,1.043,0,0,1,.813-.848,10.279,10.279,0,0,1,3.566-.3C602.988,746.346,603.251,746.372,603.627,746.408Zm.466,6.421a4.658,4.658,0,0,0-.106.555c-.044,1-.1,1.991-.113,2.987a62.462,62.462,0,0,0,.929,11.235q.385,2.222.914,4.418a6.082,6.082,0,0,0,.734,1.761,1.4,1.4,0,0,0,1.978.511,3.533,3.533,0,0,0,1.152-.968,8.07,8.07,0,0,0,.961-1.807,58.718,58.718,0,0,0,3.406-12.8c.086-.6.108-1.209.166-1.9-.324.131-.547.223-.769.311a6.49,6.49,0,0,1-7.834-2.013,18.917,18.917,0,0,1-1.072-1.676C604.339,753.28,604.252,753.11,604.093,752.828Zm11.1-6.365c-.063-1.134-.077-1.976-.165-2.811a7.524,7.524,0,0,0-.754-2.8,2.715,2.715,0,0,0-1.652-1.445c-1.364-.4-2.08-.007-2.441,1.349a2,2,0,0,0-.083.388c-.069,1.19-.207,2.383-.178,3.571.036,1.479.165,2.961.344,4.43a17.675,17.675,0,0,0,.632,3.044c.47,1.527,1.269,1.837,2.755,1.229a1.475,1.475,0,0,0,.99-1.3C614.834,750.139,615.024,748.158,615.189,746.463Z" transform="translate(-557.454 -682.096)"/><path class="a" d="M163.14,787.11c.605-2.5,1.313-4.94,2.051-7.371a32.987,32.987,0,0,1,2.133-5.436,13.813,13.813,0,0,1,1.131-1.876,5.143,5.143,0,0,1,6.324-2.047,8.236,8.236,0,0,1,4.9,4.329,22.4,22.4,0,0,1,1.747,5.216,49.594,49.594,0,0,1,1.178,14.056,27.605,27.605,0,0,1-1.845,8.938,13.044,13.044,0,0,1-2.893,4.5,8.491,8.491,0,0,1-5.246,2.484,23.119,23.119,0,0,1-5.647-.11c-.127-.019-.258-.016-.467-.027.038.25.062.459.1.663a.464.464,0,0,1-.363.6,5.353,5.353,0,0,1-2.1.272,11.476,11.476,0,0,1-5.939-2.487,1.933,1.933,0,0,1-.61-.994,26.9,26.9,0,0,1-.667-3.111,109.77,109.77,0,0,1-.827-11.193q-.35-9.433-.2-18.872c.076-4.629.224-9.257.383-13.884.054-1.57.257-3.134.357-4.7a1.136,1.136,0,0,1,.989-1.148,7.046,7.046,0,0,1,4.441.326,1.829,1.829,0,0,1,1.252,2.142c-.16,1.941-.265,3.892-.269,5.839-.013,7.688.022,15.375.041,23.063C163.1,786.559,163.125,786.835,163.14,787.11Zm12.808,1.034a40.817,40.817,0,0,0-.514-6.571,29.009,29.009,0,0,0-1.44-5.722,6.116,6.116,0,0,0-.549-1.132c-.911-1.4-2.1-1.372-2.955.048a10.048,10.048,0,0,0-1.184,2.949c-.365,1.6-.676,3.2-1,4.808-.958,4.691-1.564,9.433-2.078,14.188-.157,1.453-.321,2.9-.506,4.354a15.751,15.751,0,0,0-.29,3.831,5.212,5.212,0,0,0,.394,1.46,1.889,1.889,0,0,0,1.861,1.158,4.316,4.316,0,0,0,2.956-1.189,8.749,8.749,0,0,0,1.764-2.237,24.58,24.58,0,0,0,2.386-5.9A40.778,40.778,0,0,0,175.948,788.145Z" transform="translate(-145.464 -704.524)"/><path class="a" d="M15.715,428.4a1.632,1.632,0,0,1-1.218,1.785c-1.192.409-2.4.776-3.626,1.083-2.58.648-5.173,1.242-7.758,1.866-.344.083-.677.211-1.014.321a.984.984,0,0,1-1.4-.5,5.657,5.657,0,0,1-.7-2.6c0-.044,0-.089,0-.133-.012-1.259.135-1.5,1.375-1.768q4.03-.87,8.078-1.663c1.588-.313,3.186-.572,4.782-.844a.844.844,0,0,1,1.078.536A3.836,3.836,0,0,1,15.715,428.4Z" transform="translate(0 -397.595)"/><path class="a" d="M1569.375,858.015c-2.178,0-4.356.006-6.534,0-.867,0-1.15-.244-1.287-1.1a4.211,4.211,0,0,1,.145-1.971,1.386,1.386,0,0,1,.969-1.013,11.5,11.5,0,0,1,2.017-.4c1.8-.124,3.6-.172,5.393-.263q2.528-.129,5.056-.285c.309-.018.615-.091.925-.123a.865.865,0,0,1,1.062.587,4.738,4.738,0,0,1,.3,1.08,5.6,5.6,0,0,1-.2,2.561,1.006,1.006,0,0,1-1.051.821c-2.265.044-4.531.122-6.8.187C1569.376,858.072,1569.376,858.043,1569.375,858.015Z" transform="translate(-1457.371 -796.148)"/><path class="a" d="M40.293,259.49c-.367-.074-1-.2-1.625-.329-2.062-.439-4.119-.9-6.186-1.314-.781-.156-1.586-.2-2.379-.3-.618-.079-.869-.3-.945-.919a5.481,5.481,0,0,1,.849-3.614.962.962,0,0,1,1.163-.4c1.126.252,2.259.481,3.373.777,2.445.65,4.882,1.329,7.318,2.01.827.231,1.069.567.951,1.4a6.106,6.106,0,0,1-.417,1.528C42.024,259.2,41.515,259.491,40.293,259.49Z" transform="translate(-27.177 -235.781)"/><path class="a" d="M1521.44,979.469c.833.2,1.634.365,2.425.573,1.973.517,3.938,1.059,5.911,1.575.427.111.872.156,1.309.229.6.1.821.306.75.877a4.789,4.789,0,0,1-1.96,3.337,1.29,1.29,0,0,1-1.1.087c-.889-.184-1.779-.38-2.654-.622a32.827,32.827,0,0,1-5.194-1.849,9.788,9.788,0,0,1-1.387-.783.9.9,0,0,1-.329-1.374,11.583,11.583,0,0,1,1.319-1.743C1520.723,979.572,1521.128,979.567,1521.44,979.469Z" transform="translate(-1417.727 -914.347)"/><path class="a" d="M128.816,94.248a3.348,3.348,0,0,1,.587.255,8.442,8.442,0,0,1,.892.691,36.812,36.812,0,0,1,4.94,5.283,11.074,11.074,0,0,1,.992,1.567.939.939,0,0,1-.454,1.441,14.656,14.656,0,0,1-1.883.832.937.937,0,0,1-.69-.108,6.288,6.288,0,0,1-1.129-.811c-.781-.721-1.536-1.471-2.288-2.223a42.649,42.649,0,0,0-4.164-3.814c-.442-.338-.526-.6-.249-1.016A5.017,5.017,0,0,1,128.816,94.248Z" transform="translate(-116.862 -87.982)"/><path class="a" d="M1531.37,656.766a4.774,4.774,0,0,1-.284.681,5.263,5.263,0,0,1-.529.683,34.952,34.952,0,0,1-5.588,5.113,13.888,13.888,0,0,1-1.422.859,1.017,1.017,0,0,1-1.274-.229,2.719,2.719,0,0,1-.356-3.6,24.067,24.067,0,0,1,1.852-2c.849-.845,1.758-1.631,2.593-2.49.663-.681,1.263-1.424,1.872-2.155.335-.4.548-.471,1.02-.172a4.242,4.242,0,0,1,1.5,1.75C1531.005,655.716,1531.175,656.266,1531.37,656.766Z" transform="translate(-1419.942 -609.84)"/></svg>