<svg width="472" height="535" viewBox="0 0 472 535" fill="none" xmlns="http://www.w3.org/2000/svg">
<g clip-path="url(#clip0_18_515)">
<path d="M303.222 396.304C304.281 396.87 305.488 397.096 306.679 396.953C307.871 396.81 308.99 396.304 309.884 395.504C310.779 394.703 311.405 393.648 311.68 392.479C311.954 391.311 311.862 390.086 311.417 388.972C311.536 388.379 311.622 387.953 311.741 387.36C314.031 385.222 316.907 383.817 320.001 383.325C323.094 382.833 326.264 383.276 329.104 384.597C331.944 385.918 334.325 388.057 335.942 390.74C337.558 393.423 338.337 396.528 338.177 399.656C337.452 417.299 338.324 436.336 326.598 450.559C380.117 406.825 404.52 332.322 388.176 265.314C380.156 254.139 376.415 239.293 380.011 225.84C384.524 230.229 393.322 229.05 391.978 221.452C391.257 218.448 390.51 215.454 389.789 212.451C420.614 200.423 428.663 246.257 392.148 264.919C395.11 277.658 396.733 290.673 396.989 303.75C401.111 291.958 407.973 281.314 417.012 272.692C425.763 264.813 437.334 260.18 448.099 254.894C461.198 248.444 475.736 261.23 470.578 274.88C461.858 273.764 455.688 284.187 463.601 289.788C449.703 313.129 423.054 327.965 395.978 328.201C393.24 354.834 384.856 380.578 371.387 403.717C388.683 377.415 422.157 384.988 448.61 383.867C450.365 383.646 452.147 383.94 453.738 384.714C455.328 385.488 456.66 386.709 457.569 388.226C458.478 389.744 458.926 391.493 458.857 393.261C458.789 395.029 458.208 396.738 457.185 398.181C453.705 397.977 450.213 398.119 446.761 398.605C445.138 398.846 443.628 399.583 442.44 400.715C441.251 401.847 440.442 403.319 440.123 404.929C439.804 406.539 439.991 408.208 440.658 409.708C441.325 411.208 442.439 412.465 443.848 413.306C420.643 434.58 384.684 439.153 356.463 425.578C348.119 436.088 338.706 445.702 328.374 454.267L286.417 434.267C286.489 433.729 286.583 433.183 286.67 432.652C290.437 434.747 294.447 436.374 298.609 437.494C294.133 420.431 289.145 410.437 303.221 396.304H303.222Z" fill="#F2F2F2"/>
<path d="M229.084 355.94C228.317 356.863 227.285 357.528 226.127 357.845C224.969 358.162 223.742 358.115 222.612 357.712C221.482 357.308 220.503 356.566 219.809 355.588C219.114 354.609 218.737 353.44 218.728 352.24C218.394 351.736 218.154 351.374 217.82 350.87C214.893 349.754 211.7 349.538 208.649 350.249C205.599 350.96 202.83 352.566 200.698 354.86C198.566 357.155 197.168 360.034 196.683 363.129C196.198 366.224 196.648 369.393 197.976 372.23C205.302 388.296 211.676 406.255 227.901 415.005C161.838 394.689 111.135 334.894 100.996 266.671C104.208 253.296 102.073 238.136 93.6676 227.033C91.1436 232.801 82.5509 235.027 80.9298 227.483C80.465 224.429 80.0269 221.375 79.5619 218.322C46.4764 218.809 56.3117 264.293 97.1678 267.803C99.2299 280.719 102.636 293.384 107.332 305.591C99.0667 296.226 88.6961 288.956 77.0731 284.381C65.9966 280.385 53.5325 280.459 41.5688 279.623C27.0046 278.591 18.3636 295.917 28.2888 306.613C35.9437 302.29 45.5896 309.616 40.3738 317.788C62.0497 334.162 92.3262 337.85 117.491 327.855C130.073 351.488 147.548 372.168 168.751 388.517C142.811 370.683 114.667 390.322 89.7444 399.263C88.0355 399.72 86.4965 400.664 85.3152 401.981C84.1339 403.298 83.3614 404.93 83.0919 406.679C82.8224 408.427 83.0675 410.216 83.7974 411.827C84.5273 413.439 85.7104 414.803 87.2023 415.754C90.3483 414.252 93.6356 413.066 97.0159 412.214C98.6104 411.825 100.286 411.938 101.814 412.538C103.342 413.138 104.646 414.196 105.549 415.567C106.452 416.938 106.909 418.554 106.857 420.195C106.805 421.835 106.247 423.42 105.259 424.731C134.775 435.679 169.802 426.351 190.818 403.134C202.51 409.72 214.855 415.074 227.654 419.108L258.967 384.759C258.698 384.288 258.405 383.818 258.124 383.359C255.426 386.721 252.326 389.739 248.893 392.347C246.602 374.856 247.452 363.719 229.085 355.94L229.084 355.94Z" fill="#F2F2F2"/>
<path d="M237.142 210.798C238.337 210.677 239.465 210.192 240.374 209.409C241.283 208.626 241.93 207.582 242.226 206.419C242.523 205.256 242.454 204.03 242.03 202.907C241.607 201.784 240.848 200.819 239.857 200.141C239.625 199.583 239.459 199.181 239.227 198.623C239.937 195.571 241.541 192.802 243.834 190.668C246.128 188.535 249.006 187.135 252.101 186.648C255.195 186.162 258.364 186.61 261.202 187.936C264.04 189.262 266.417 191.405 268.029 194.091C277.264 209.141 288.601 224.459 286.797 242.804C306.842 176.659 285.561 101.205 234.632 54.691C221.744 49.8855 210.361 39.6473 205.846 26.4742C212.04 27.6017 218.685 21.7177 213.333 16.1592C211.06 14.0684 208.771 11.9991 206.498 9.90812C225.381 -17.264 257.617 16.2979 237.71 52.1481C247.272 61.0722 255.874 70.9715 263.378 81.6845C260.225 69.5976 259.988 56.9351 262.684 44.7385C265.555 33.3187 272.578 23.021 278.567 12.6307C285.845 -0.0266495 305.043 2.48197 308.371 16.6887C300.511 20.6243 301.2 32.7168 310.891 32.9545C312.368 60.08 298.517 87.254 276.172 102.546C288.748 126.182 296.142 152.227 297.861 178.946C297.556 147.468 329.565 135.092 350.901 119.412C352.235 118.25 353.878 117.501 355.63 117.256C357.382 117.012 359.167 117.283 360.768 118.036C362.369 118.789 363.716 119.991 364.645 121.497C365.574 123.002 366.045 124.745 366 126.514C362.997 128.285 360.178 130.349 357.583 132.677C356.369 133.782 355.527 135.236 355.172 136.838C354.816 138.441 354.965 140.114 355.598 141.628C356.231 143.143 357.317 144.424 358.707 145.297C360.096 146.171 361.722 146.593 363.361 146.505C355.958 177.104 328.658 200.949 297.661 205.414C296.595 218.791 294.141 232.021 290.339 244.891L244.357 251.682C244.117 251.195 243.891 250.689 243.667 250.201C247.963 249.84 252.198 248.954 256.278 247.564C243.049 235.894 233.336 230.379 237.141 210.798L237.142 210.798Z" fill="#F2F2F2"/>
<path d="M283.389 196.054C262.455 196.054 251.101 193.496 247.135 188.036C243.636 183.218 245.982 176.861 248.698 169.5C250.651 164.21 252.863 158.214 252.863 152.279C252.863 123.415 267.499 108.779 296.363 108.779C310.724 108.779 326.144 116.408 337.612 129.187C348.036 140.804 353.23 154.708 351.86 167.333C350.737 177.687 345.917 184.496 336.693 188.763L336.154 189.012L336 188.438C335.204 185.466 333.856 182.671 332.026 180.197C331.848 184.08 330.869 187.884 329.151 191.371L329.053 191.569L328.84 191.63C318.4 194.604 306.01 195.41 296.382 195.779C291.696 195.961 287.365 196.053 283.389 196.054Z" fill="#2F2E41"/>
<path d="M289.094 236.271C288.292 233.912 286.939 231.779 285.147 230.048C283.355 228.318 281.176 227.039 278.791 226.319C276.406 225.599 273.884 225.458 271.434 225.908C268.984 226.358 266.676 227.385 264.702 228.906L195.846 270.073L174.299 217.5C176.12 214.83 177.047 211.652 176.95 208.422C176.852 205.191 175.734 202.075 173.756 199.52C171.777 196.965 169.041 195.101 165.938 194.198C162.835 193.294 159.526 193.396 156.485 194.489C153.444 195.582 150.827 197.61 149.01 200.282C147.193 202.955 146.269 206.134 146.37 209.364C146.472 212.594 147.593 215.709 149.574 218.262C151.556 220.815 154.294 222.675 157.398 223.575C158.726 238.736 166.106 306.496 191.781 304.033C213.362 301.963 266.957 266.27 283.603 253.894C286.266 251.916 288.233 249.144 289.22 245.977C290.206 242.81 290.162 239.411 289.094 236.271Z" fill="#FFB6B6"/>
<path d="M340.983 535.279H281.053L271.003 485.589L267.743 535.279H212.073C212.094 496.257 214.127 457.262 218.163 418.449L218.853 416.099L219.943 412.339L220.633 409.979L232.153 370.419L233.063 367.279H302.433C306.425 371.029 310.107 375.096 313.443 379.439C314.573 380.879 315.753 382.439 316.963 384.119C317.803 385.309 318.673 386.559 319.543 387.869C327.272 399.377 333.05 412.081 336.643 425.469V425.479C337.253 427.769 337.793 430.113 338.263 432.509V432.519C338.683 434.649 339.053 436.809 339.343 439.019C339.563 440.629 339.753 442.259 339.893 443.909C340.726 453.05 340.434 462.259 339.023 471.329L340.983 535.279Z" fill="#2F2E41"/>
<path d="M23.2336 80.9207C27.1256 79.4141 29.431 75.9979 28.383 73.2904C27.3349 70.5829 23.3302 69.6094 19.4382 71.116C15.5462 72.6226 13.2407 76.0388 14.2888 78.7463C15.3369 81.4537 19.3416 82.4273 23.2336 80.9207Z" fill="#E6E6E6"/>
<path d="M72.2375 74.6345C76.1295 73.1279 78.4349 69.7118 77.3869 67.0043C76.3388 64.2968 72.3341 63.3233 68.4421 64.8299C64.5501 66.3365 62.2446 69.7526 63.2927 72.4601C64.3408 75.1676 68.3455 76.1411 72.2375 74.6345Z" fill="#3F3D56"/>
<path d="M18.9841 122.729C22.8761 121.222 25.1816 117.806 24.1335 115.099C23.0854 112.391 19.0807 111.418 15.1887 112.924C11.2967 114.431 8.99122 117.847 10.0393 120.554C11.0873 123.262 15.0921 124.235 18.9841 122.729Z" fill="#FF6584"/>
<path d="M4.80749 141.171C6.59301 140.748 7.548 138.325 6.94048 135.758C6.33297 133.191 4.393 131.453 2.60748 131.876C0.82196 132.298 -0.132999 134.722 0.474514 137.288C1.08203 139.855 3.02196 141.593 4.80749 141.171Z" fill="#E6E6E6"/>
<path d="M4.51598 172.393C6.30151 171.971 7.25646 169.547 6.64895 166.981C6.04144 164.414 4.1015 162.676 2.31598 163.098C0.530456 163.521 -0.424503 165.944 0.183011 168.511C0.790524 171.078 2.73046 172.816 4.51598 172.393Z" fill="#3F3D56"/>
<path d="M47.5248 107.724C49.3103 107.301 50.2652 104.878 49.6577 102.311C49.0502 99.7446 47.1103 98.0066 45.3248 98.4292C43.5392 98.8518 42.5843 101.275 43.1918 103.842C43.7993 106.408 45.7392 108.147 47.5248 107.724Z" fill="#E6E6E6"/>
<path d="M21.7162 101.457C23.5017 101.034 24.4567 98.6107 23.8491 96.044C23.2416 93.4773 21.3017 91.7392 19.5162 92.1618C17.7307 92.5844 16.7757 95.0077 17.3832 97.5744C17.9907 100.141 19.9307 101.879 21.7162 101.457Z" fill="#FF6584"/>
<path d="M49.0716 72.7059C50.8572 72.2832 51.8121 69.8599 51.2046 67.2932C50.5971 64.7266 48.6572 62.9884 46.8716 63.4111C45.0861 63.8337 44.1312 66.257 44.7387 68.8237C45.3462 71.3904 47.2861 73.1285 49.0716 72.7059Z" fill="#3F3D56"/>
<path d="M61.7939 288.803C63.6757 286.593 62.625 282.607 59.447 279.902C56.2689 277.197 52.1671 276.796 50.2853 279.007C48.4035 281.218 49.4542 285.203 52.6322 287.908C55.8102 290.613 59.912 291.014 61.7939 288.803Z" fill="#E6E6E6"/>
<path d="M32.9335 248.704C34.8154 246.494 33.7646 242.508 30.5866 239.803C27.4086 237.098 23.3068 236.697 21.4249 238.908C19.5431 241.119 20.5939 245.104 23.7719 247.809C26.9499 250.514 31.0517 250.915 32.9335 248.704Z" fill="#3F3D56"/>
<path d="M100.582 272.634C102.464 270.423 101.414 266.438 98.2355 263.733C95.0575 261.028 90.9557 260.627 89.0739 262.838C87.192 265.048 88.2428 269.034 91.4208 271.739C94.5988 274.444 98.7006 274.845 100.582 272.634Z" fill="#FF6584"/>
<path d="M119.852 273.077C121.82 271.32 122.424 268.787 121.203 267.418C119.981 266.049 117.395 266.363 115.427 268.119C113.459 269.876 112.855 272.409 114.077 273.778C115.298 275.147 117.884 274.833 119.852 273.077Z" fill="#E6E6E6"/>
<path d="M147.447 258.466C149.414 256.71 150.019 254.177 148.797 252.808C147.575 251.439 144.99 251.753 143.022 253.509C141.054 255.266 140.449 257.799 141.671 259.168C142.893 260.537 145.479 260.223 147.447 258.466Z" fill="#3F3D56"/>
<path d="M70.1004 251.438C72.0681 249.681 72.6729 247.148 71.4511 245.779C70.2293 244.41 67.6436 244.724 65.6758 246.481C63.708 248.237 63.1033 250.77 64.3251 252.139C65.5469 253.508 68.1326 253.194 70.1004 251.438Z" fill="#E6E6E6"/>
<path d="M76.8777 277.117C78.8455 275.361 79.4502 272.828 78.2284 271.459C77.0066 270.09 74.4209 270.404 72.4531 272.16C70.4854 273.917 69.8806 276.45 71.1024 277.819C72.3242 279.188 74.9099 278.874 76.8777 277.117Z" fill="#FF6584"/>
<path d="M38.5701 266.751C40.5379 264.995 41.1426 262.462 39.9208 261.093C38.699 259.724 36.1133 260.038 34.1455 261.794C32.1777 263.551 31.573 266.084 32.7948 267.453C34.0166 268.822 36.6023 268.508 38.5701 266.751Z" fill="#3F3D56"/>
<path d="M255.68 31.623C258.286 30.3417 258.905 26.2671 257.063 22.5221C255.221 18.777 251.616 16.7798 249.011 18.061C246.405 19.3423 245.787 23.4169 247.628 27.1619C249.47 30.9069 253.075 32.9042 255.68 31.623Z" fill="#E6E6E6"/>
<path d="M266.236 79.8872C268.841 78.606 269.46 74.5314 267.618 70.7863C265.777 67.0413 262.172 65.044 259.566 66.3253C256.961 67.6065 256.342 71.6811 258.184 75.4262C260.026 79.1712 263.631 81.1685 266.236 79.8872Z" fill="#3F3D56"/>
<path d="M213.661 31.0526C216.266 29.7713 216.885 25.6967 215.043 21.9517C213.201 18.2066 209.596 16.2093 206.991 17.4906C204.386 18.7719 203.767 22.8465 205.609 26.5915C207.451 30.3365 211.056 32.3338 213.661 31.0526Z" fill="#FF6584"/>
<path d="M191.574 15.736C194.078 14.906 195.639 12.8212 195.062 11.0796C194.485 9.33798 191.987 8.59898 189.483 9.42905C186.98 10.2591 185.418 12.3439 185.996 14.0855C186.573 15.8272 189.071 16.5661 191.574 15.736Z" fill="#E6E6E6"/>
<path d="M160.446 18.1813C162.95 17.3512 164.512 15.2664 163.934 13.5248C163.357 11.7832 160.859 11.0442 158.355 11.8743C155.852 12.7043 154.29 14.7891 154.868 16.5307C155.445 18.2724 157.943 19.0113 160.446 18.1813Z" fill="#3F3D56"/>
<path d="M228.635 55.3586C231.139 54.5285 232.7 52.4438 232.123 50.7021C231.545 48.9605 229.047 48.2215 226.544 49.0516C224.04 49.8817 222.479 51.9665 223.056 53.7081C223.634 55.4497 226.131 56.1887 228.635 55.3586Z" fill="#E6E6E6"/>
<path d="M232.617 29.0999C235.121 28.2698 236.682 26.185 236.105 24.4434C235.527 22.7018 233.029 21.9628 230.526 22.7929C228.022 23.6229 226.461 25.7077 227.038 27.4493C227.616 29.191 230.113 29.9299 232.617 29.0999Z" fill="#FF6584"/>
<path d="M263.654 53.8311C266.158 53.001 267.719 50.9163 267.142 49.1746C266.564 47.433 264.067 46.694 261.563 47.5241C259.059 48.3542 257.498 50.4389 258.075 52.1806C258.653 53.9222 261.15 54.6612 263.654 53.8311Z" fill="#3F3D56"/>
<path d="M273.264 204.09L306.28 202.389L321.616 226.62C321.616 226.62 350.469 231.444 348.469 265.444C346.469 299.444 313.363 329.279 313.363 329.279L314.778 346.985L312.32 354.008L312.636 357.951L315.988 362.127L316.334 366.446L313.363 373.279L317.403 379.822L232.469 371.593L229.363 360.279L233.894 354.204L231.363 346.279L235.168 338.657L237.151 314.446C237.151 314.446 215.447 281.839 240.363 257.279L250.363 240.279L261.552 226.628L273.264 204.09Z" fill="#FAFAFA"/>
<path d="M289.678 197.248C308.999 197.248 324.662 181.585 324.662 162.264C324.662 142.942 308.999 127.279 289.678 127.279C270.356 127.279 254.693 142.942 254.693 162.264C254.693 181.585 270.356 197.248 289.678 197.248Z" fill="#FFB6B6"/>
<path d="M284.994 160.143C281.979 160.143 278.966 160.058 275.955 159.888L275.416 159.858L275.487 159.324C275.931 155.984 275.681 152.59 274.754 149.351C273.179 153.038 270.836 156.348 267.881 159.058L267.714 159.211L267.489 159.186C259.311 158.292 251.207 156.814 243.239 154.764L242.934 154.686L242.873 154.377C242.277 151.455 241.969 148.481 241.953 145.499C241.953 136.183 245.33 128.342 251.463 123.421C258.139 118.064 267.708 116.416 278.417 118.779H312.663C316.427 118.783 320.037 120.281 322.699 122.943C325.361 125.605 326.859 129.215 326.863 132.979V154.665L326.489 154.763C312.944 158.323 298.999 160.131 284.994 160.143Z" fill="#2F2E41"/>
<path d="M46.2805 121.229C44.7475 121.79 43.4995 122.936 42.8102 124.415C42.121 125.895 42.0469 127.588 42.6042 129.122L79.5474 230.491C80.1081 232.024 81.2539 233.272 82.7336 233.961C84.2132 234.65 85.9059 234.724 87.4402 234.167L230.823 181.912C232.356 181.352 233.604 180.206 234.293 178.726C234.983 177.246 235.057 175.554 234.5 174.019L197.556 72.6505C196.996 71.1175 195.85 69.8694 194.37 69.1801C192.89 68.4909 191.198 68.4167 189.664 68.9739L46.2805 121.229Z" fill="#CCCCCC"/>
<path d="M177.459 195.772L89.6935 227.758C88.0422 228.357 86.2205 228.277 84.6279 227.536C83.0354 226.794 81.8021 225.451 81.1987 223.801L47.6915 131.86C47.0917 130.209 47.1715 128.387 47.9133 126.794C48.6551 125.202 49.9983 123.968 51.6482 123.365L186.929 74.0626C188.58 73.4629 190.402 73.5427 191.995 74.2845C193.587 75.0264 194.821 76.3696 195.424 78.0196L211.614 122.444C216.791 136.699 216.102 152.424 209.699 166.171C203.296 179.918 191.701 190.563 177.459 195.772Z" fill="white"/>
<path d="M388.773 174.48L351.757 263.059C350.177 266.808 347.188 269.785 343.433 271.348C339.678 272.911 335.459 272.936 331.686 271.416C329.734 270.629 327.963 269.454 326.481 267.961C324.998 266.467 323.835 264.688 323.063 262.731C322.29 260.774 321.925 258.68 321.988 256.576C322.051 254.473 322.542 252.405 323.431 250.498L364.703 159.663L387.454 103.412C385.488 101.451 384.173 98.9327 383.688 96.1987C383.204 93.4647 383.572 90.6477 384.744 88.1304C385.916 85.6132 387.835 83.5177 390.239 82.1288C392.643 80.7398 395.417 80.1247 398.183 80.3669C400.949 80.6092 403.573 81.6971 405.7 83.4829C407.826 85.2686 409.351 87.6656 410.067 90.3483C410.784 93.0309 410.657 95.8691 409.705 98.4773C408.752 101.085 407.019 103.337 404.742 104.926L388.773 174.48Z" fill="#FFB6B6"/>
<g clip-path="url(#clip1_18_515)">
<path d="M151.956 128.089C152.014 127.853 152.056 127.614 152.083 127.373C152.144 126.202 152.216 125.03 152.236 123.857C152.281 121.027 152.209 118.198 151.979 115.377C151.894 114.321 151.666 113.277 151.51 112.227C151.378 111.327 151.246 110.425 151.137 109.522C151.079 109.038 151.125 108.967 151.567 108.81C152.424 108.489 153.334 108.33 154.25 108.341C154.402 108.346 154.554 108.364 154.702 108.396C154.877 108.407 155.042 108.484 155.162 108.611C155.283 108.738 155.352 108.906 155.355 109.081C155.606 110.297 155.849 111.515 156.138 112.722C156.506 114.265 156.889 115.807 157.317 117.335C157.712 118.743 158.173 120.132 158.61 121.529C158.659 121.672 158.722 121.811 158.797 121.943C158.853 122.027 158.916 122.107 158.986 122.182C159.055 122.096 159.112 122.002 159.155 121.901C159.247 121.568 159.319 121.231 159.369 120.89C159.583 119.121 159.789 117.353 159.987 115.584C160.187 113.758 160.363 111.93 160.555 110.103C160.583 109.829 160.626 109.556 160.685 109.286C160.754 108.974 160.9 108.937 161.148 109.149C161.179 109.176 161.208 109.206 161.234 109.239C161.802 109.869 162.173 110.652 162.301 111.491C162.648 114.524 162.719 117.581 162.514 120.627C162.452 121.3 162.361 121.972 162.268 122.642C162.221 122.969 162.142 123.29 162.066 123.615C161.969 124.093 161.745 124.536 161.417 124.898C161.089 125.259 160.671 125.526 160.204 125.67C159.488 125.934 158.729 126.061 157.966 126.042C157.43 126.049 156.902 125.914 156.435 125.651C155.969 125.388 155.579 125.007 155.307 124.545C155.221 124.405 155.127 124.269 155.009 124.086C154.982 124.162 154.963 124.24 154.952 124.319C154.951 125.327 154.961 126.335 154.953 127.342C154.95 127.713 154.913 128.086 154.881 128.457C154.853 128.937 154.693 129.401 154.418 129.796C154.143 130.191 153.765 130.502 153.324 130.696C152.556 131.086 151.716 131.314 150.856 131.365C150.62 131.374 150.385 131.364 150.151 131.338C149.658 131.316 149.18 131.16 148.768 130.887C148.356 130.614 148.026 130.234 147.814 129.788C147.784 129.726 147.754 129.664 147.721 129.603C147.695 129.557 147.665 129.513 147.594 129.4C147.579 129.509 147.571 129.619 147.568 129.729C147.647 130.818 147.639 131.91 147.545 132.997C147.512 133.313 147.467 133.627 147.409 133.94C147.329 134.473 147.08 134.967 146.699 135.349C146.318 135.731 145.825 135.982 145.292 136.065C144.244 136.349 143.128 136.248 142.149 135.778C141.169 135.308 140.391 134.501 139.957 133.506C139.907 133.389 139.831 133.285 139.735 133.202C139.733 133.274 139.737 133.346 139.745 133.417C139.967 134.64 140.105 135.876 140.158 137.117C140.194 137.739 140.134 138.362 139.981 138.966C139.884 139.372 139.691 139.749 139.419 140.065C139.147 140.381 138.803 140.628 138.416 140.785C137.223 141.306 135.88 141.371 134.642 140.969C133.935 140.713 133.322 140.247 132.886 139.634C132.743 139.456 132.609 139.273 132.42 139.026C132.406 139.242 132.396 139.376 132.388 139.51C132.354 140.131 132.338 140.752 132.28 141.37C132.232 141.768 132.163 142.163 132.071 142.552C131.968 143.121 131.729 143.655 131.374 144.111C131.019 144.566 130.559 144.929 130.033 145.167C129.316 145.534 128.535 145.758 127.732 145.828C127.137 145.896 126.534 145.798 125.99 145.545C125.447 145.292 124.985 144.893 124.654 144.392C124.265 143.823 123.924 143.223 123.635 142.596C123.046 141.287 122.564 139.932 122.193 138.544C122.153 138.362 122.075 138.19 121.964 138.04C121.976 138.175 121.985 138.309 121.999 138.444C122.392 141.803 122.591 145.181 122.595 148.563C122.61 150.028 122.505 151.491 122.281 152.938C122.16 153.59 122.003 154.234 121.81 154.868C121.7 155.263 121.507 155.63 121.246 155.946C120.984 156.262 120.659 156.519 120.292 156.701C119.232 157.287 118.033 157.575 116.823 157.535C116.282 157.527 115.749 157.395 115.266 157.151C114.783 156.907 114.362 156.556 114.034 156.125C113.461 155.381 112.966 154.58 112.557 153.735C111.462 151.441 110.574 149.053 109.904 146.601C109.407 144.877 108.919 143.148 108.5 141.405C107.975 139.218 107.48 137.023 107.051 134.815C106.594 132.459 106.225 130.086 105.829 127.718C105.747 127.229 105.726 126.73 105.659 126.238C105.623 126.074 105.65 125.901 105.734 125.755C105.819 125.61 105.955 125.5 106.115 125.449C106.52 125.271 106.942 125.135 107.374 125.042C107.947 124.955 108.525 124.904 109.104 124.889C109.339 124.889 109.574 124.922 109.8 124.987C109.904 124.994 110.006 125.022 110.099 125.07C110.193 125.117 110.275 125.183 110.343 125.263C110.41 125.344 110.46 125.437 110.491 125.537C110.521 125.637 110.531 125.742 110.519 125.846C110.781 128.955 111.135 132.053 111.626 135.134C112.075 138.039 112.678 140.919 113.43 143.761C113.982 145.858 114.685 147.912 115.535 149.907C115.934 150.879 116.438 151.803 117.039 152.665C117.287 153.012 117.574 153.331 117.894 153.614C117.972 153.711 118.075 153.786 118.192 153.828C118.31 153.871 118.436 153.88 118.559 153.854C118.681 153.829 118.794 153.77 118.884 153.684C118.975 153.598 119.04 153.489 119.072 153.368C119.287 152.92 119.434 152.443 119.509 151.952C119.658 150.927 119.753 149.895 119.792 148.861C119.924 144.776 119.836 140.687 119.529 136.611C119.156 131.921 118.787 127.23 118.423 122.538C118.359 121.67 118.309 120.803 118.265 119.935C118.255 119.659 118.264 119.383 118.293 119.109C118.297 118.969 118.342 118.833 118.42 118.717C118.499 118.601 118.609 118.51 118.738 118.454C119.079 118.305 119.431 118.181 119.791 118.084C120.436 117.919 121.107 117.874 121.768 117.951C122.015 117.98 122.258 118.035 122.494 118.115C122.66 118.163 122.807 118.263 122.912 118.4C123.018 118.537 123.077 118.705 123.08 118.878C123.343 121.584 123.708 124.277 124.173 126.956C124.582 129.296 125.086 131.614 125.686 133.912C126.383 136.575 127.328 139.154 128.262 141.738C128.298 141.894 128.387 142.033 128.514 142.13C128.641 142.228 128.797 142.279 128.957 142.274C129.117 142.27 129.271 142.21 129.392 142.105C129.513 142 129.594 141.856 129.621 141.699C129.943 140.612 130.162 139.497 130.275 138.368C130.544 136.146 130.556 133.901 130.311 131.676C130.047 129.465 130.089 127.228 130.435 125.029C130.552 124.165 130.774 123.319 131.095 122.509C131.326 121.977 131.599 121.465 131.911 120.977C132.208 120.538 132.624 120.194 133.11 119.985C133.85 119.604 134.645 119.34 135.466 119.202C135.795 119.161 136.128 119.154 136.458 119.182C136.639 119.19 136.816 119.236 136.979 119.316C137.141 119.397 137.285 119.51 137.401 119.648C137.543 119.822 137.672 119.818 137.868 119.761C138.223 119.65 138.587 119.572 138.956 119.529C139.295 119.499 139.422 119.651 139.5 119.971C139.748 120.99 139.971 122.016 140.265 123.021C140.961 125.437 141.734 127.829 142.636 130.175C143.021 131.256 143.501 132.3 144.072 133.296C144.22 133.544 144.4 133.771 144.608 133.973C144.837 134.192 145.039 134.142 145.158 133.842C145.272 133.56 145.347 133.265 145.38 132.963C145.464 132.07 145.564 131.173 145.566 130.279C145.576 128.333 145.539 126.387 145.506 124.442C145.457 123.462 145.298 122.492 145.03 121.548C144.418 119.226 143.962 116.865 143.666 114.481C143.637 114.221 143.648 113.954 143.61 113.697C143.581 113.546 143.611 113.39 143.694 113.26C143.776 113.131 143.905 113.038 144.054 113C144.696 112.734 145.381 112.591 146.075 112.578C146.337 112.571 146.6 112.597 146.856 112.655C146.939 112.661 147.021 112.685 147.096 112.724C147.17 112.763 147.236 112.816 147.29 112.881C147.344 112.946 147.384 113.021 147.408 113.101C147.432 113.182 147.44 113.266 147.431 113.35C147.656 115.672 148.072 117.972 148.675 120.226C149.145 122.145 149.75 124.028 150.485 125.861C150.733 126.458 151.036 127.034 151.34 127.602C151.501 127.933 151.578 127.959 151.956 128.089ZM134.866 135.745C135.111 136.408 135.438 137.037 135.84 137.619C136.115 138.02 136.488 138.343 136.924 138.557C137.023 138.631 137.14 138.678 137.263 138.693C137.386 138.709 137.51 138.693 137.625 138.646C137.74 138.6 137.841 138.524 137.918 138.428C137.995 138.331 138.046 138.216 138.066 138.094C138.204 137.689 138.286 137.268 138.31 136.841C138.347 136.057 138.343 135.27 138.299 134.486C138.147 132.146 137.852 129.818 137.417 127.515C137.098 125.78 136.829 124.035 136.519 122.298C136.462 121.987 136.356 121.686 136.205 121.408C136.125 121.244 135.983 121.118 135.81 121.057C135.637 120.997 135.447 121.007 135.281 121.085C135.103 121.143 134.94 121.24 134.804 121.369C134.668 121.497 134.561 121.654 134.492 121.828C134.223 122.465 134.04 123.135 133.949 123.82C133.586 126.057 133.527 128.332 133.773 130.584C133.938 132.34 134.305 134.072 134.866 135.745Z" fill="#FF3333"/>
<path d="M128.175 157.74C128.089 157.463 128.01 157.23 127.945 156.992C127.731 156.206 127.517 155.421 127.318 154.634C127.283 154.444 127.266 154.251 127.268 154.058C127.246 153.775 127.292 153.49 127.402 153.228C127.513 152.965 127.683 152.733 127.901 152.549C129.053 151.506 130.403 150.707 131.872 150.199C132.275 150.044 132.712 150.002 133.136 150.077C133.561 150.153 133.956 150.344 134.28 150.628C134.951 151.185 135.518 151.857 135.954 152.612C136.286 153.168 136.575 153.749 136.884 154.319C136.913 154.386 136.965 154.44 137.031 154.471C137.031 154.369 137.038 154.265 137.031 154.162C136.989 153.529 136.934 152.896 136.906 152.262C136.813 151.046 137.203 149.843 137.991 148.913C138.223 148.639 138.439 148.35 138.679 148.082C139.126 147.568 139.679 147.157 140.3 146.877C140.921 146.598 141.595 146.456 142.276 146.462C143.398 146.47 144.513 146.644 145.584 146.981C145.969 147.091 146.348 147.216 146.783 147.351C146.805 147.186 146.829 147.043 146.842 146.899C146.982 145.151 147.216 143.411 147.543 141.687C147.649 141.159 147.774 140.634 147.915 140.114C147.923 140.02 147.951 139.928 147.997 139.844C148.042 139.761 148.104 139.688 148.179 139.629C148.254 139.57 148.34 139.528 148.432 139.504C148.523 139.48 148.619 139.475 148.713 139.489C149.378 139.445 150.045 139.522 150.682 139.716C150.918 139.793 151.143 139.9 151.352 140.033C151.486 140.108 151.589 140.227 151.644 140.37C151.698 140.513 151.701 140.671 151.651 140.816C151.101 143.369 150.757 145.962 150.623 148.57C150.625 148.656 150.631 148.743 150.642 148.829C150.79 148.863 150.936 148.906 151.079 148.958C153.847 150.087 156.496 151.489 158.986 153.143C159.581 153.545 160.137 154.001 160.713 154.43C160.872 154.543 160.992 154.702 161.059 154.885C161.126 155.069 161.135 155.268 161.086 155.457C161.073 155.552 161.051 155.647 161.023 155.739C160.64 156.876 159.891 157.854 158.894 158.52C158.745 158.636 158.562 158.699 158.373 158.701C158.184 158.702 158 158.641 157.849 158.528C157.62 158.374 157.398 158.209 157.178 158.042C155.141 156.496 153.011 155.075 150.802 153.786C150.697 153.724 150.585 153.669 150.451 153.601C150.432 153.671 150.419 153.743 150.411 153.816C150.334 156.853 150.494 159.891 150.888 162.902C151 163.665 151.173 164.42 151.339 165.174C151.441 165.644 151.362 165.879 150.885 165.977C150.262 166.118 149.616 166.119 148.993 165.978C148.37 165.837 147.787 165.559 147.286 165.163C147.101 164.978 146.986 164.734 146.961 164.473C146.813 163.451 146.66 162.425 146.591 161.395C146.41 158.308 146.388 155.214 146.524 152.124C146.53 151.946 146.532 151.767 146.537 151.58C146.497 151.542 146.453 151.508 146.406 151.479C145.134 150.866 143.804 150.382 142.435 150.036C141.739 149.848 141.014 149.79 140.296 149.865C139.955 149.892 139.63 150.024 139.366 150.243C139.102 150.462 138.913 150.757 138.823 151.087C138.699 151.497 138.632 151.921 138.623 152.348C138.609 153.161 138.652 153.976 138.682 154.79C138.747 155.88 138.665 156.974 138.437 158.043C138.412 158.176 138.421 158.314 138.463 158.443C139.137 160.634 139.656 162.869 140.017 165.132C140.338 166.926 140.495 168.746 140.488 170.569C140.467 171.134 140.415 171.698 140.332 172.257C140.255 172.783 139.985 173.262 139.573 173.598C138.873 174.19 138.062 174.636 137.187 174.909C136.068 175.28 134.897 175.47 133.719 175.47C133.317 175.485 132.917 175.407 132.549 175.243C132.182 175.079 131.857 174.833 131.6 174.524C131.009 173.813 130.485 173.047 130.037 172.239C128.548 169.636 127.327 166.889 126.391 164.04C125.879 162.58 125.525 161.069 125.337 159.533C125.311 159.405 125.325 159.272 125.376 159.152C125.426 159.031 125.512 158.929 125.622 158.858C126.23 158.421 126.91 158.093 127.631 157.891C127.789 157.846 127.948 157.802 128.175 157.74ZM129.874 161.374C129.887 161.491 129.908 161.607 129.936 161.721C130.132 162.313 130.32 162.902 130.534 163.485C131.354 165.683 132.371 167.803 133.572 169.819C134.051 170.624 134.556 171.413 135.086 172.187C135.312 172.516 135.589 172.807 135.905 173.049C135.996 173.127 136.102 173.184 136.216 173.219C136.33 173.254 136.45 173.265 136.569 173.252C136.687 173.239 136.802 173.201 136.905 173.142C137.009 173.082 137.099 173.003 137.17 172.907C137.379 172.67 137.534 172.39 137.626 172.087C137.732 171.674 137.785 171.249 137.783 170.822C137.806 168.062 137.517 165.308 136.921 162.613C136.837 162.245 136.715 161.885 136.595 161.47C136.435 161.619 136.326 161.722 136.216 161.822C135.569 162.47 134.722 162.879 133.812 162.983C132.902 163.086 131.984 162.878 131.208 162.392C130.863 162.164 130.531 161.918 130.212 161.655C130.117 161.582 130.029 161.502 129.874 161.374L129.874 161.374ZM134.921 155.201C134.632 154.555 134.436 154.068 134.2 153.602C133.944 153.05 133.583 152.553 133.138 152.139C132.969 151.975 132.768 151.848 132.547 151.767C132.326 151.685 132.09 151.651 131.855 151.665C130.972 151.736 130.643 152.124 130.734 152.993C130.739 153.076 130.751 153.157 130.772 153.237C130.997 153.946 131.181 154.671 131.462 155.356C131.812 156.209 132.217 157.043 132.647 157.858C132.947 158.432 133.297 158.978 133.692 159.49C134.305 160.274 134.839 160.277 135.569 159.593C135.708 159.476 135.809 159.322 135.86 159.148C135.911 158.974 135.91 158.789 135.856 158.616C135.529 157.42 135.199 156.225 134.918 155.202L134.921 155.201Z" fill="#FF3333"/>
<path d="M115.649 174.713C115.445 173.123 115.315 171.545 115.204 169.966C115.108 168.754 115.119 167.537 115.237 166.327C115.282 165.874 115.363 165.425 115.479 164.984C115.622 164.239 116.025 163.569 116.616 163.094C117.207 162.618 117.947 162.367 118.705 162.386C119.405 162.352 120.105 162.461 120.761 162.707C121.417 162.953 122.015 163.331 122.52 163.817C123.352 164.607 124.083 165.496 124.697 166.465C126.338 168.91 127.621 171.577 128.507 174.386C129.121 176.193 129.429 178.09 129.42 179.999C129.42 181.122 129.187 182.233 128.736 183.262C128.235 184.399 127.349 185.324 126.235 185.874C125.183 186.405 124.071 186.805 122.923 187.065C122.845 187.083 122.769 187.113 122.645 187.153C122.723 187.291 122.783 187.407 122.851 187.517C122.876 187.549 122.895 187.587 122.905 187.627C122.916 187.667 122.917 187.709 122.91 187.75C122.902 187.791 122.886 187.829 122.863 187.863C122.839 187.897 122.808 187.926 122.773 187.947C122.431 188.231 122.036 188.443 121.611 188.572C120.289 188.913 118.898 188.869 117.6 188.445C117.367 188.36 117.166 188.205 117.024 188.002C116.632 187.469 116.271 186.914 115.944 186.339C114.847 184.28 113.856 182.167 112.975 180.007C111.441 176.398 110.004 172.751 108.663 169.065C107.678 166.354 106.735 163.627 105.799 160.898C105.482 159.972 105.252 159.016 104.962 158.083C104.897 157.921 104.894 157.741 104.953 157.577C105.012 157.413 105.13 157.277 105.283 157.194C106.059 156.648 106.992 156.368 107.941 156.397C108.226 156.377 108.509 156.466 108.732 156.646C108.956 156.825 109.103 157.082 109.146 157.365C109.484 158.531 109.857 159.69 110.287 160.824C111.989 165.303 113.718 169.77 115.438 174.241C115.503 174.401 115.579 174.556 115.649 174.713ZM123.335 172.467C122.849 171.185 122.26 169.944 121.575 168.757C120.975 167.684 120.268 166.675 119.464 165.746C119.293 165.548 119.102 165.368 118.893 165.209C118.052 164.596 117.366 164.877 117.184 165.894C117.067 166.548 117.056 167.216 117.15 167.874C117.293 168.886 117.468 169.887 117.637 170.895C118.122 173.838 118.823 176.734 119.581 179.616C119.813 180.497 120.039 181.376 120.254 182.263C120.388 183.053 120.617 183.824 120.937 184.558C121.084 184.837 121.27 185.094 121.491 185.32C121.66 185.498 121.88 185.618 122.12 185.665C122.36 185.711 122.609 185.682 122.832 185.58C123.472 185.333 123.993 184.85 124.288 184.231C124.556 183.699 124.735 183.127 124.818 182.537C125.016 181.224 125.042 179.891 124.895 178.572C124.63 176.48 124.106 174.43 123.335 172.468L123.335 172.467Z" fill="#FF3333"/>
<path d="M102.996 145.005C103.113 145.224 103.146 145.478 103.088 145.719C103.031 145.96 102.887 146.172 102.684 146.315C102.081 146.818 101.459 147.3 100.814 147.752C99.4562 148.702 98.0788 149.625 96.7127 150.563C96.5309 150.687 96.3655 150.836 96.1937 150.975C96.1376 151.042 96.0677 151.097 95.9886 151.135C95.9095 151.174 95.8231 151.194 95.7353 151.196C95.6474 151.198 95.5602 151.181 95.4795 151.146C95.3989 151.112 95.3266 151.06 95.2676 150.995C94.8346 150.628 94.4965 150.162 94.2821 149.637C94.2723 149.611 94.2623 149.585 94.2525 149.56C93.9657 148.829 93.9977 148.656 94.6599 148.225C96.095 147.29 97.5393 146.369 98.9927 145.461C99.8476 144.926 100.72 144.42 101.589 143.906C101.642 143.862 101.704 143.828 101.771 143.807C101.838 143.787 101.908 143.779 101.977 143.786C102.047 143.793 102.114 143.813 102.176 143.846C102.237 143.88 102.292 143.925 102.336 143.979C102.641 144.258 102.869 144.612 102.996 145.005Z" fill="#FF3333"/>
<path d="M165.955 141.682C164.688 142.166 163.421 142.654 162.152 143.134C161.647 143.327 161.428 143.248 161.158 142.78C160.948 142.42 160.827 142.016 160.804 141.6C160.784 141.448 160.805 141.293 160.864 141.152C160.924 141.01 161.02 140.887 161.143 140.795C161.484 140.536 161.847 140.308 162.228 140.114C163.249 139.642 164.286 139.214 165.309 138.762C166.271 138.337 167.231 137.907 168.189 137.472C168.365 137.393 168.527 137.282 168.7 137.195C168.814 137.111 168.956 137.075 169.096 137.094C169.237 137.114 169.363 137.188 169.449 137.301C169.609 137.471 169.748 137.659 169.864 137.863C170.132 138.332 170.287 138.858 170.317 139.398C170.344 139.548 170.316 139.704 170.237 139.835C170.158 139.966 170.034 140.064 169.888 140.109C168.579 140.639 167.277 141.188 165.971 141.73C165.969 141.715 165.962 141.698 165.955 141.682Z" fill="#FF3333"/>
<path d="M99.9054 141.452C99.6753 141.491 99.2788 141.558 98.8863 141.622C97.5883 141.825 96.2884 142.014 94.9931 142.232C94.5038 142.315 94.0254 142.468 93.5415 142.586C93.1642 142.678 92.9689 142.605 92.7871 142.261C92.4205 141.556 92.3111 140.746 92.4779 139.969C92.5031 139.831 92.5757 139.707 92.6832 139.617C92.7906 139.527 92.926 139.478 93.066 139.477C93.7775 139.374 94.488 139.255 95.2023 139.18C96.7701 139.015 98.3397 138.868 99.9092 138.723C100.442 138.674 100.658 138.816 100.774 139.327C100.849 139.649 100.881 139.979 100.871 140.309C100.849 140.898 100.617 141.181 99.9054 141.452Z" fill="#FF3333"/>
<path d="M161.852 145.42C162.381 145.351 162.884 145.269 163.391 145.214C164.654 145.077 165.919 144.955 167.182 144.817C167.455 144.787 167.724 144.714 167.995 144.659C168.367 144.584 168.541 144.655 168.627 145.003C168.729 145.406 168.747 145.825 168.678 146.234C168.609 146.644 168.456 147.035 168.227 147.381C168.152 147.474 168.057 147.548 167.95 147.599C167.843 147.65 167.725 147.676 167.606 147.677C167.048 147.767 166.486 147.851 165.923 147.905C164.783 148.027 163.634 148.053 162.489 147.983C162.158 147.96 161.83 147.911 161.507 147.835C161.423 147.83 161.34 147.805 161.267 147.763C161.193 147.721 161.13 147.662 161.082 147.592C161.035 147.523 161.003 147.443 160.991 147.359C160.978 147.275 160.985 147.19 161.01 147.109C161.095 146.662 161.223 146.224 161.39 145.801C161.457 145.639 161.692 145.546 161.852 145.42Z" fill="#FF3333"/>
<path d="M95.3514 131.556C95.4844 131.549 95.6179 131.555 95.7498 131.574C95.9784 131.627 96.2032 131.695 96.4227 131.778C97.8344 132.303 99.191 132.965 100.473 133.755C100.8 133.96 101.11 134.191 101.399 134.447C101.475 134.497 101.539 134.564 101.586 134.643C101.632 134.723 101.658 134.811 101.664 134.903C101.669 134.994 101.653 135.086 101.617 135.17C101.581 135.254 101.525 135.328 101.455 135.387C101.173 135.709 100.868 136.011 100.544 136.29C100.419 136.374 100.266 136.406 100.118 136.38C99.8314 136.338 99.5505 136.264 99.2803 136.159C98.6654 135.913 98.0592 135.644 97.4542 135.374C96.3934 134.87 95.3004 134.438 94.1823 134.079C93.8499 133.981 93.7427 133.847 93.8115 133.543C93.9167 133.123 94.1079 132.73 94.373 132.388C94.638 132.046 94.9712 131.763 95.3514 131.556Z" fill="#FF3333"/>
<path d="M162.298 133.112C162.305 133.265 162.301 133.419 162.284 133.572C162.246 133.747 162.194 133.92 162.128 134.087C161.578 135.566 160.868 136.98 160.012 138.306C159.816 138.59 159.603 138.863 159.375 139.122C159.281 139.235 159.15 139.312 159.006 139.339C158.861 139.366 158.711 139.343 158.582 139.272C158.196 139.118 157.88 138.827 157.695 138.455C157.509 138.084 157.466 137.656 157.575 137.255C157.756 136.718 157.968 136.192 158.208 135.679C158.515 134.999 158.869 134.339 159.164 133.653C159.399 133.109 159.583 132.543 159.775 131.983C159.881 131.675 159.989 131.587 160.331 131.656C160.806 131.763 161.243 132 161.593 132.341C161.852 132.582 162.073 132.864 162.298 133.112Z" fill="#FF3333"/>
</g>
</g>
<defs>
<clipPath id="clip0_18_515">
<rect width="471.644" height="535.279" fill="white"/>
</clipPath>
<clipPath id="clip1_18_515">
<rect width="77.2693" height="66.5513" fill="white" transform="translate(87 130.566) rotate(-20.9009)"/>
</clipPath>
</defs>
</svg>
