<svg width="541" height="552" viewBox="0 0 541 552" fill="none" xmlns="http://www.w3.org/2000/svg">
<g clip-path="url(#clip0_14_102)">
<path d="M118.527 210.678C100.281 186.261 66.8877 180.368 50.2937 192.768C33.6997 205.168 29.8879 238.863 48.1334 263.28C65.0219 285.88 95.6196 292.044 112.473 283.577C112.418 283.841 112.415 284.113 112.463 284.379L113.413 289.076C113.485 289.435 113.648 289.768 113.886 290.046C114.123 290.323 114.428 290.535 114.771 290.662C115.113 290.789 115.483 290.826 115.844 290.769C116.205 290.713 116.545 290.565 116.833 290.341L124.879 284.055C125.167 283.83 125.393 283.535 125.535 283.198C125.677 282.862 125.73 282.494 125.69 282.131C125.65 281.768 125.518 281.421 125.307 281.123C125.095 280.826 124.81 280.587 124.481 280.43L120.152 278.372C120 278.303 119.84 278.253 119.676 278.222C132.667 264.488 135.452 233.328 118.527 210.678Z" fill="#D496DA"/>
<path d="M78.6171 201.459C87.5422 202.877 95.5823 207.667 101.078 214.841C106.574 222.015 109.105 231.025 108.15 240.012C107.954 242.07 111.17 242.057 111.365 240.012C112.285 230.326 109.509 220.65 103.594 212.925C97.6792 205.2 89.0624 199.997 79.4717 198.359C77.448 198.015 76.5784 201.113 78.6171 201.459Z" fill="white"/>
<path d="M537.747 241.248C547.565 212.392 533.539 181.519 513.928 174.847C494.316 168.175 464.372 184.088 454.555 212.944C445.467 239.654 457.689 268.374 474.203 277.484C473.954 277.589 473.728 277.74 473.536 277.93L470.199 281.37C469.945 281.632 469.762 281.955 469.667 282.308C469.573 282.661 469.57 283.032 469.66 283.387C469.749 283.741 469.927 284.066 470.178 284.332C470.429 284.598 470.743 284.796 471.091 284.906L480.826 287.986C481.174 288.097 481.545 288.116 481.903 288.043C482.261 287.969 482.594 287.806 482.871 287.567C483.148 287.329 483.359 287.024 483.485 286.681C483.611 286.338 483.647 285.968 483.59 285.608L482.839 280.874C482.81 280.71 482.761 280.55 482.693 280.397C501.366 283.343 528.64 268.017 537.747 241.248Z" fill="#D89EC8"/>
<path d="M522.779 203.121C526.657 211.283 527.254 220.623 524.446 229.213C521.637 237.802 515.638 244.986 507.687 249.281C505.878 250.283 507.708 252.928 509.505 251.932C518.013 247.213 524.423 239.451 527.449 230.204C530.474 220.957 529.892 210.908 525.819 202.072C524.958 200.209 521.911 201.244 522.779 203.121Z" fill="white"/>
<path d="M308.773 317.981C332.893 317.981 352.446 298.428 352.446 274.308C352.446 250.188 332.893 230.635 308.773 230.635C284.653 230.635 265.1 250.188 265.1 274.308C265.1 298.428 284.653 317.981 308.773 317.981Z" fill="white"/>
<path d="M306.788 551.223H294.744C293.338 551.222 291.99 550.662 290.995 549.668C290.001 548.674 289.442 547.326 289.44 545.919V445.536C289.442 444.13 290.001 442.782 290.995 441.788C291.99 440.793 293.338 440.234 294.744 440.232H306.788C308.194 440.234 309.543 440.793 310.537 441.788C311.531 442.782 312.091 444.13 312.092 445.536V545.919C312.091 547.326 311.531 548.674 310.537 549.668C309.543 550.662 308.194 551.222 306.788 551.223Z" fill="white"/>
<path d="M345.368 551.223H333.324C331.918 551.222 330.57 550.662 329.575 549.668C328.581 548.674 328.021 547.326 328.02 545.919V445.536C328.021 444.13 328.581 442.782 329.575 441.788C330.57 440.793 331.918 440.234 333.324 440.232H345.368C346.774 440.234 348.122 440.793 349.117 441.788C350.111 442.782 350.671 444.13 350.672 445.536V545.919C350.671 547.326 350.111 548.674 349.117 549.668C348.122 550.662 346.774 551.222 345.368 551.223Z" fill="white"/>
<path d="M276.676 359.2L271.509 370.079C270.904 371.349 269.821 372.327 268.496 372.799C267.171 373.27 265.713 373.197 264.442 372.595L173.765 329.533C172.495 328.929 171.518 327.845 171.046 326.52C170.574 325.196 170.647 323.738 171.249 322.467L176.416 311.587C177.02 310.318 178.104 309.34 179.429 308.868C180.754 308.396 182.211 308.469 183.482 309.071L274.16 352.133C275.429 352.738 276.407 353.821 276.879 355.146C277.35 356.471 277.277 357.929 276.676 359.2Z" fill="white"/>
<path d="M290.337 365.031C290.593 366.267 290.397 367.554 289.783 368.657L283.962 379.2C283.281 380.431 282.14 381.341 280.788 381.73C279.437 382.12 277.987 381.959 276.755 381.28L234.143 362.496C232.913 361.815 232.003 360.674 231.613 359.322C231.224 357.971 231.386 356.521 232.064 355.289L232.064 355.289L242.742 335.313C243.079 334.703 243.532 334.166 244.076 333.731C244.621 333.297 245.245 332.974 245.915 332.78C246.584 332.587 247.285 332.528 247.977 332.606C248.669 332.683 249.339 332.897 249.949 333.233L288.219 358.531C289.459 359.216 289.843 363.261 290.236 364.622C290.276 364.758 290.309 364.895 290.337 365.031Z" fill="#2F2E41"/>
<path d="M342.727 352.133L433.405 309.071C434.676 308.469 436.133 308.396 437.458 308.868C438.783 309.34 439.867 310.318 440.471 311.587L445.638 322.467C446.24 323.738 446.313 325.196 445.841 326.52C445.37 327.845 444.392 328.929 443.122 329.533L352.445 372.595C351.174 373.197 349.716 373.27 348.391 372.799C347.066 372.327 345.983 371.349 345.378 370.079L340.211 359.2C339.61 357.929 339.537 356.471 340.008 355.146C340.48 353.821 341.458 352.738 342.727 352.133Z" fill="white"/>
<path d="M326.651 364.622C327.044 363.261 327.428 359.216 328.669 358.531L366.939 333.234C367.549 332.897 368.219 332.683 368.911 332.606C369.603 332.528 370.304 332.587 370.973 332.78C371.642 332.974 372.267 333.297 372.811 333.731C373.356 334.166 373.809 334.703 374.146 335.313L384.824 355.289L384.823 355.289C385.502 356.521 385.664 357.971 385.274 359.322C384.885 360.674 383.975 361.815 382.744 362.496L340.133 381.28C338.901 381.959 337.45 382.12 336.099 381.73C334.748 381.341 333.607 380.431 332.925 379.2L327.105 368.657C326.491 367.554 326.295 366.267 326.551 365.031C326.579 364.895 326.612 364.758 326.651 364.622Z" fill="#2F2E41"/>
<path d="M302.96 290.494L302.915 288.862C305.951 288.778 308.628 288.587 310.639 287.118C311.209 286.678 311.678 286.12 312.013 285.482C312.349 284.844 312.543 284.142 312.582 283.423C312.618 282.983 312.551 282.541 312.388 282.132C312.225 281.722 311.969 281.356 311.641 281.061C310.306 279.933 308.158 280.298 306.592 281.016L305.242 281.635L307.831 262.711L309.448 262.933L307.245 279.03C308.147 278.696 309.118 278.592 310.07 278.729C311.022 278.866 311.924 279.239 312.695 279.814C313.213 280.267 313.62 280.833 313.884 281.469C314.147 282.105 314.26 282.793 314.213 283.48C314.165 284.447 313.907 285.391 313.456 286.247C313.005 287.103 312.372 287.85 311.602 288.436C309.017 290.325 305.659 290.419 302.96 290.494Z" fill="#2F2E41"/>
<path d="M326.234 264.321H317.444V265.953H326.234V264.321Z" fill="#2F2E41"/>
<path d="M298.489 264.321H289.699V265.953H298.489V264.321Z" fill="#2F2E41"/>
<path d="M323.829 338.393H325.59C326.294 338.394 326.992 338.256 327.643 337.987C328.294 337.719 328.885 337.324 329.383 336.826C329.882 336.329 330.277 335.738 330.547 335.087C330.816 334.437 330.955 333.739 330.955 333.035C330.955 332.331 330.816 331.634 330.547 330.983C330.277 330.332 329.882 329.741 329.383 329.244C328.885 328.746 328.294 328.352 327.643 328.083C326.992 327.814 326.294 327.676 325.59 327.677H291.297C289.877 327.679 288.516 328.244 287.513 329.249C286.509 330.253 285.946 331.615 285.946 333.035C285.946 334.455 286.509 335.817 287.513 336.822C288.516 337.826 289.877 338.392 291.297 338.393H294.518C266.997 350.915 249.337 397.168 249.337 425.991C249.337 459.569 273.571 470.4 309.175 470.4C344.778 470.4 378.269 459.569 378.269 425.991C378.269 397.168 353.394 350.915 323.829 338.393Z" fill="#2F2E41"/>
<path d="M306.975 249.366C305.911 246.132 302.072 245.139 299.118 246.359C295.653 247.79 293.689 251.334 290.343 253.009C284.324 256.022 276.34 254.404 271.751 249.574C266.733 244.293 265.745 236.051 268.271 229.383C270.882 222.487 277.361 217.496 284.297 215.468C293.514 212.775 303.403 215.247 311.386 220.215C311.6 220.337 311.838 220.408 312.083 220.424C312.327 220.44 312.573 220.401 312.8 220.308C313.027 220.216 313.231 220.073 313.395 219.89C313.559 219.708 313.68 219.491 313.748 219.255C315.943 210.867 325.413 208.426 333.023 209.326C340.533 210.36 347.678 213.211 353.838 217.633C365.734 225.932 374.121 239.451 375.295 254.005C375.86 261.491 374.781 269.01 372.135 276.035C369.489 283.061 365.34 289.423 359.978 294.676C357.296 297.264 354.17 299.3 351.437 301.821C348.946 304.119 346.491 307.141 346.541 310.717C346.655 318.939 357.474 321.207 363.878 321.453C371.826 321.808 379.632 319.256 385.835 314.275C392.039 309.293 396.216 302.222 397.585 294.384C397.927 292.476 398.103 290.543 398.114 288.604C398.123 286.535 394.908 286.533 394.899 288.604C394.838 296.418 391.764 303.907 386.316 309.509C383.516 312.318 380.183 314.539 376.512 316.042C372.842 317.545 368.908 318.3 364.942 318.262C359.83 318.237 345.981 315.813 350.623 307.727C352.438 304.565 355.694 302.413 358.501 300.212C361.421 297.918 364.073 295.3 366.406 292.41C371.103 286.609 374.566 279.91 376.58 272.723C378.595 265.535 379.12 258.012 378.122 250.615C376.05 236.118 367.259 223.018 355.302 214.746C343.917 206.87 322.873 199.904 312.922 213.55C311.868 215.01 311.096 216.655 310.648 218.4L313.009 217.439C305.317 212.652 296.149 210.169 287.109 211.554C283.218 212.14 279.488 213.514 276.146 215.592C272.804 217.67 269.922 220.407 267.674 223.637C265.52 226.886 264.201 230.616 263.835 234.497C263.469 238.378 264.067 242.289 265.577 245.883C267.055 249.326 269.492 252.271 272.597 254.368C275.703 256.464 279.345 257.624 283.091 257.709C287.148 257.872 291.139 256.651 294.41 254.245C296.241 252.849 297.648 250.872 299.63 249.683C300.765 249.002 303.317 248.524 303.875 250.22C304.519 252.177 307.625 251.339 306.975 249.366V249.366Z" fill="#2F2E41"/>
<path d="M379.844 90.656C387.821 91.1586 395.566 93.5444 402.443 97.618C409.32 101.692 415.134 107.337 419.408 114.091C420.605 116.006 422.169 118.11 421.34 120.467C421.051 121.371 420.464 122.15 419.675 122.677C418.886 123.204 417.942 123.447 416.997 123.368C414.552 123.07 412.974 120.679 412.673 118.387C412.331 115.788 414.165 113.747 416.429 112.782C421.962 110.422 427.544 114.069 432.051 116.98C442.32 123.612 453.615 129.61 466.058 130.366C477.57 131.066 489.916 126.552 496.319 116.568C497.44 114.821 494.658 113.207 493.543 114.945C487.193 124.847 474.354 128.403 463.191 126.872C456.539 125.823 450.115 123.642 444.199 120.424C441.131 118.832 438.155 117.067 435.239 115.211C432.465 113.275 429.524 111.59 426.452 110.174C421.328 108.069 414.544 108.233 410.965 113.08C407.626 117.601 410.206 125.128 415.791 126.399C421.084 127.604 425.721 122.626 424.632 117.421C424.075 114.758 422.07 112.153 420.518 109.977C415.855 103.418 409.781 97.9879 402.741 94.0877C395.702 90.1876 387.877 87.9162 379.844 87.4411C377.776 87.3388 377.781 90.554 379.844 90.6561L379.844 90.656Z" fill="#CCCCCC"/>
<path d="M116.736 141.151C108.759 140.648 101.015 138.262 94.1375 134.189C87.2605 130.115 81.4467 124.47 77.1727 117.715C75.9749 115.801 74.4113 113.696 75.2405 111.34C75.5294 110.436 76.1162 109.657 76.9052 109.13C77.6941 108.603 78.6385 108.359 79.5839 108.439C82.0286 108.736 83.6062 111.128 83.9074 113.419C84.249 116.019 82.4152 118.059 80.1511 119.025C74.6184 121.385 69.0364 117.738 64.5297 114.827C54.2608 108.195 42.966 102.196 30.5228 101.44C19.0101 100.741 6.66449 105.255 0.260945 115.239C-0.859377 116.986 1.92225 118.6 3.03702 116.862C9.38779 106.96 22.2263 103.404 33.3892 104.934C40.0415 105.984 46.4649 108.165 52.3813 111.382C55.4495 112.975 58.4253 114.74 61.3409 116.595C64.1153 118.531 67.0561 120.217 70.1286 121.633C75.2528 123.738 82.0362 123.573 85.6155 118.727C88.9547 114.206 86.374 106.679 80.789 105.408C75.4961 104.203 70.8592 109.181 71.9485 114.386C72.5058 117.048 74.5106 119.654 76.0625 121.83C80.7251 128.389 86.7998 133.819 93.8391 137.719C100.878 141.619 108.703 143.891 116.737 144.366C118.805 144.468 118.799 141.253 116.737 141.151L116.736 141.151Z" fill="#CCCCCC"/>
<path d="M487.492 552.147H153.044C152.812 552.147 152.588 552.054 152.424 551.89C152.259 551.725 152.167 551.502 152.167 551.269C152.167 551.036 152.259 550.813 152.424 550.648C152.588 550.484 152.812 550.391 153.044 550.391H487.492C487.725 550.391 487.949 550.484 488.113 550.648C488.278 550.813 488.37 551.036 488.37 551.269C488.37 551.502 488.278 551.725 488.113 551.89C487.949 552.054 487.725 552.147 487.492 552.147Z" fill="#3F3D56"/>
</g>
<defs>
<clipPath id="clip0_14_102">
<rect width="540.961" height="552.147" fill="white"/>
</clipPath>
</defs>
</svg>
